<!DOCTYPE svg PUBLIC "-//W3C//DTD SVG 20010904//EN" "http://www.w3.org/TR/2001/REC-SVG-20010904/DTD/svg10.dtd">
<svg version="1.0" xmlns="http://www.w3.org/2000/svg" width="360px" height="295px" viewBox="0 0 3600 2950" preserveAspectRatio="xMidYMid meet">
<g id="layer101" fill="#090605" stroke="none">
<path d="M1395 2931 c-22 -10 -61 -36 -86 -58 -45 -38 -50 -40 -131 -45 -53 -4 -102 -13 -130 -26 -59 -26 -124 -85 -150 -136 -31 -62 -55 -83 -115 -102 -107 -34 -196 -146 -210 -265 -5 -50 -10 -58 -68 -114 -104 -101 -135 -187 -114 -318 l13 -78 -37 -69 c-64 -118 -61 -235 10 -342 17 -24 26 -51 25 -71 -1 -18 -4 -75 -6 -127 -2 -52 -13 -141 -25 -197 -36 -173 -23 -304 45 -442 104 -211 214 -220 336 -28 16 26 31 47 32 47 2 0 18 -5 37 -11 46 -16 67 -36 94 -90 50 -97 155 -159 273 -159 80 0 97 -6 156 -56 84 -72 224 -95 316 -53 42 19 46 19 55 3 6 -9 18 -26 28 -38 18 -21 18 -21 13 17 -4 31 -2 37 14 37 10 0 21 -4 24 -8 3 -5 30 -15 61 -22 102 -25 207 7 298 89 37 33 44 35 130 41 133 9 222 61 272 159 30 59 48 75 116 100 71 27 132 80 171 147 16 30 33 54 37 54 4 0 28 -14 54 -30 62 -39 122 -40 195 -4 125 62 190 255 179 534 -9 211 -70 360 -211 508 l-41 43 0 112 c0 138 -14 171 -115 267 -65 62 -68 67 -74 123 -13 122 -102 225 -220 258 -37 10 -96 54 -96 71 0 21 -63 99 -103 127 -56 38 -148 65 -200 58 -49 -7 -77 3 -130 47 -80 65 -87 66 -294 65 -176 -1 -186 -2 -154 -16 27 -11 44 -12 75 -4 38 9 39 9 21 -5 -24 -18 -81 -14 -140 9 -57 23 -179 22 -230 -2z"/>
</g>
<g id="layer102" fill="#374b19" stroke="none">
<path d="M1395 2931 c-22 -10 -61 -36 -86 -58 -45 -38 -50 -40 -131 -45 -53 -4 -102 -13 -130 -26 -59 -26 -124 -85 -150 -136 -31 -62 -55 -83 -115 -102 -107 -34 -196 -146 -210 -265 -5 -50 -10 -58 -68 -114 -104 -101 -135 -187 -114 -318 l13 -78 -37 -69 c-64 -118 -61 -235 10 -342 17 -24 26 -51 25 -71 -1 -18 -3 -81 -6 -142 l-3 -110 24 72 c13 40 55 132 92 205 57 112 66 138 59 159 -5 13 -7 53 -4 89 4 36 8 83 10 105 17 187 112 369 247 472 57 42 149 98 149 90 0 -3 -31 -28 -69 -56 -102 -76 -183 -168 -228 -257 -36 -74 -38 -82 -37 -173 2 -260 43 -413 116 -437 16 -5 18 -16 18 -88 0 -132 12 -156 158 -304 70 -71 148 -142 174 -159 26 -17 45 -33 41 -36 -14 -15 253 -114 387 -143 65 -14 127 -19 260 -19 202 1 280 16 427 85 192 90 274 174 430 438 16 27 159 -90 269 -220 43 -51 116 -98 152 -98 39 0 81 28 101 69 62 121 86 378 47 503 -22 73 -83 165 -140 212 -44 35 -159 96 -183 96 -7 0 -17 -17 -22 -37 -6 -21 -20 -53 -31 -71 -24 -39 -25 -52 -5 -52 8 0 44 -10 81 -22 46 -15 77 -33 104 -60 37 -39 68 -93 57 -104 -3 -3 -23 4 -46 16 -23 11 -41 18 -41 14 0 -3 20 -38 44 -78 25 -39 49 -83 55 -98 9 -24 4 -21 -34 19 -25 25 -47 44 -50 41 -3 -3 13 -46 35 -95 49 -112 51 -134 5 -65 -20 28 -40 52 -45 52 -15 0 -12 -43 6 -68 21 -31 1 -28 -50 7 -53 37 -112 101 -133 146 -21 44 -37 45 -31 3 l5 -32 -18 23 c-11 13 -19 32 -19 42 0 25 -17 24 -25 -1 -6 -20 -25 -28 -25 -11 0 5 7 27 15 50 20 57 30 182 17 219 -9 25 -5 43 25 116 24 60 36 110 40 159 5 65 3 76 -19 108 -16 23 -27 56 -31 93 -15 152 -158 333 -352 451 -54 32 -56 35 -25 29 110 -21 228 -90 307 -179 58 -64 122 -180 158 -283 l24 -67 0 70 c2 285 -170 475 -470 517 -104 15 -105 33 -1 24 286 -23 461 -160 493 -384 9 -59 5 -168 -7 -212 -2 -10 17 -27 58 -50 34 -19 101 -73 148 -119 83 -83 86 -79 5 7 l-40 43 0 112 c0 138 -14 171 -115 267 -65 62 -68 67 -74 123 -13 122 -102 225 -220 258 -37 10 -96 54 -96 71 0 21 -63 99 -103 127 -56 38 -148 65 -200 58 -49 -7 -77 3 -130 47 -80 65 -87 66 -294 65 -176 -1 -186 -2 -154 -16 27 -11 44 -12 75 -4 38 9 39 9 21 -5 -24 -18 -81 -14 -140 9 -57 23 -179 22 -230 -2z m455 -230 c18 -5 37 -28 65 -79 37 -68 42 -72 74 -72 43 0 105 -29 158 -75 23 -19 46 -35 52 -35 6 0 11 -7 11 -15 0 -8 23 -48 50 -88 45 -67 50 -79 50 -130 0 -34 -9 -82 -24 -123 -43 -116 -61 -104 -32 21 28 123 29 159 6 206 -46 89 -172 186 -267 205 -30 6 -33 4 -33 -16 0 -14 15 -36 38 -56 21 -17 47 -51 57 -73 15 -30 25 -40 38 -37 24 6 21 -6 -7 -33 -24 -23 -44 -15 -33 13 3 7 -8 37 -24 65 -69 121 -220 155 -326 75 -27 -21 -33 -32 -33 -64 0 -55 7 -68 47 -81 19 -6 33 -13 30 -15 -2 -2 -18 1 -35 7 -23 8 -41 8 -64 0 -32 -10 -32 -10 -10 6 24 17 30 62 13 106 -12 30 -75 57 -134 57 -53 0 -135 -38 -169 -78 -29 -35 -63 -125 -54 -147 8 -23 -13 -28 -39 -11 -29 19 -33 36 -7 29 14 -3 21 5 33 39 7 23 29 62 47 86 55 72 23 96 -59 43 -88 -57 -168 -164 -185 -248 -6 -30 34 -166 63 -211 8 -13 13 -33 11 -45 -6 -38 -83 90 -97 161 -13 66 -7 92 47 198 57 113 124 180 200 199 l44 12 25 77 c27 87 38 95 158 121 63 14 272 18 315 6z m418 -168 c-10 -2 -28 -2 -40 0 -13 2 -5 4 17 4 22 1 32 -1 23 -4z m-1248 -110 c-38 -14 -178 -88 -217 -114 -93 -64 -168 -156 -213 -259 -20 -45 -24 -75 -26 -165 -2 -60 -6 -121 -9 -135 l-7 -25 -13 25 c-29 55 -47 154 -42 224 13 151 114 273 307 371 66 34 199 84 220 84 13 -1 13 -1 0 -6z m1455 -144 c107 -50 180 -152 194 -269 8 -68 1 -77 -18 -22 -42 118 -146 262 -206 283 -19 7 -32 16 -29 21 7 11 8 11 59 -13z m-558 -81 c8 -10 16 -28 17 -40 2 -46 137 -59 224 -22 23 9 32 10 30 2 -12 -35 -134 -46 -231 -21 -43 11 -52 10 -87 -8 -94 -49 -247 -64 -349 -33 -53 15 -55 15 -114 -12 -73 -32 -172 -43 -201 -21 -17 13 -12 14 55 9 62 -4 83 -1 127 18 37 16 52 28 49 39 -6 26 20 67 65 102 l43 34 -47 -54 c-26 -30 -45 -58 -42 -62 7 -12 95 -37 154 -44 98 -11 291 44 297 86 2 16 -48 59 -75 64 -9 2 -18 4 -20 4 -2 1 0 6 3 11 7 12 76 -23 102 -52z m193 -253 c-12 -19 -25 -62 -30 -96 -8 -53 -6 -70 14 -125 58 -160 143 -218 262 -180 54 17 104 62 104 94 1 15 2 15 11 0 13 -22 45 -23 53 -2 12 30 6 110 -13 179 -11 38 -18 71 -16 73 7 7 53 -65 74 -117 43 -101 36 -215 -18 -295 l-20 -29 6 41 c11 83 -29 92 -142 32 -87 -46 -111 -48 -172 -19 -86 42 -153 150 -153 248 l0 34 -24 -22 c-14 -13 -27 -33 -28 -45 -3 -16 -7 -11 -16 19 -27 91 -2 163 78 216 24 16 45 29 47 29 3 0 -5 -16 -17 -35z m-755 -110 c22 -13 47 -31 57 -41 22 -25 39 -124 28 -160 -4 -16 -9 -23 -9 -15 -1 15 -40 61 -51 61 -4 0 -7 -35 -7 -79 1 -67 -3 -84 -25 -123 -15 -24 -47 -63 -72 -86 -39 -36 -52 -42 -88 -42 -24 0 -67 9 -96 20 -53 20 -97 25 -126 14 -21 -8 -21 -62 0 -94 8 -14 -2 -6 -24 18 -22 23 -47 64 -56 89 -29 86 -16 209 33 298 l21 40 -7 -40 c-11 -63 -8 -198 6 -222 15 -29 48 -30 57 -1 6 20 7 19 20 -11 17 -40 64 -61 139 -61 66 0 104 18 139 63 40 52 58 114 60 202 1 86 -12 123 -63 179 l-26 28 25 -7 c14 -4 43 -17 65 -30z m1022 8 c40 -19 68 -56 78 -103 6 -32 4 -31 -19 16 -30 59 -76 89 -157 104 l-54 9 59 -5 c33 -2 74 -12 93 -21z m-27 -58 c34 -17 60 -62 60 -100 0 -22 -3 -25 -25 -19 -36 9 -67 -20 -63 -60 3 -31 3 -31 -46 -30 -42 0 -53 5 -77 32 -22 24 -29 43 -29 72 0 32 3 38 16 33 24 -9 46 24 34 48 -8 13 -6 20 7 28 26 15 90 13 123 -4z m-1122 -52 c-10 -2 -28 -2 -40 0 -13 2 -5 4 17 4 22 1 32 -1 23 -4z m-103 -19 c-21 -8 -50 -24 -63 -37 -29 -26 -61 -92 -62 -126 0 -13 -3 -22 -6 -18 -4 3 -3 27 0 52 11 72 87 145 151 144 12 0 3 -7 -20 -15z m81 -50 c15 -4 20 -11 17 -25 -7 -25 15 -50 41 -47 18 3 21 -3 24 -38 4 -51 -32 -99 -84 -113 -46 -13 -62 -6 -57 23 8 39 -53 77 -72 46 -12 -19 -25 1 -25 36 0 84 74 140 156 118z m864 -143 c0 -28 -73 -142 -128 -200 -29 -31 -49 -47 -44 -36 5 11 29 60 52 109 23 49 49 119 58 156 l17 67 22 -39 c13 -22 23 -48 23 -57z m-548 -53 c59 -107 119 -238 109 -238 -4 0 -27 13 -50 28 -50 34 -97 98 -135 182 -26 58 -27 62 -12 86 9 13 22 24 29 24 7 0 34 -37 59 -82z m1101 -60 c8 -13 4 -25 -19 -55 -16 -21 -43 -65 -61 -98 -37 -69 -43 -52 -17 49 28 107 68 151 97 104z m-403 -144 c-7 -33 -33 -85 -70 -142 -48 -73 -69 -95 -106 -113 -25 -13 -80 -56 -124 -96 -43 -40 -81 -73 -85 -73 -4 0 -5 21 -1 47 8 62 63 133 163 212 43 34 94 75 114 91 22 17 51 59 75 107 36 71 39 75 42 48 2 -17 -1 -53 -8 -81z m-155 25 c14 -22 -7 -60 -52 -90 -25 -18 -79 -64 -120 -102 -40 -38 -73 -63 -73 -56 0 8 13 42 30 77 40 84 136 182 179 182 16 0 33 -5 36 -11z m487 -172 c-128 -274 -325 -427 -580 -452 -40 -4 -72 -4 -72 1 0 5 35 20 78 33 87 26 206 83 284 135 119 80 253 237 304 355 11 25 20 37 22 28 2 -9 -14 -54 -36 -100z m-1004 -35 c97 -48 143 -77 167 -105 34 -40 89 -146 101 -195 7 -26 6 -26 -37 14 -50 46 -159 120 -266 182 -59 35 -79 53 -116 109 -81 124 -88 153 -25 98 24 -20 103 -66 176 -103z m-390 46 c43 -63 74 -127 70 -146 -2 -13 -21 1 -71 50 -51 52 -67 74 -67 96 0 57 29 57 68 0z m62 -272 c159 -118 357 -176 535 -160 39 4 67 3 64 0 -14 -14 -167 -35 -260 -36 -260 -1 -435 110 -523 330 l-18 45 69 -66 c37 -36 97 -87 133 -113z"/>
<path d="M1540 2679 c-109 -20 -117 -25 -140 -86 -27 -71 -37 -143 -21 -143 7 0 26 7 43 16 48 25 167 16 209 -15 28 -21 33 -22 41 -7 19 34 89 60 163 60 39 1 79 -3 89 -8 18 -9 19 -6 13 28 -3 20 -22 66 -42 102 l-36 64 -137 -1 c-75 -1 -157 -5 -182 -10z"/>
<path d="M3220 1585 c25 -51 47 -91 49 -89 5 5 -70 163 -83 173 -6 5 9 -32 34 -84z"/>
<path d="M3271 1470 c0 -8 4 -24 9 -35 5 -13 9 -14 9 -5 0 8 -4 24 -9 35 -5 13 -9 14 -9 5z"/>
<path d="M536 1340 c-118 -249 -158 -493 -105 -636 39 -104 136 -186 194 -164 47 18 115 205 128 353 6 65 -3 74 -22 22 -12 -35 -105 -144 -114 -135 -3 3 1 34 9 70 16 78 18 113 4 105 -5 -3 -10 -14 -10 -23 0 -9 -13 -44 -29 -77 l-29 -60 5 88 c5 79 4 87 -12 87 -16 0 -17 7 -11 67 8 79 30 131 86 211 22 32 40 62 40 66 0 5 -12 23 -27 41 -16 19 -36 44 -45 57 -16 23 -17 23 -62 -72z"/>
<path d="M3292 1380 c0 -19 2 -27 5 -17 2 9 2 25 0 35 -3 9 -5 1 -5 -18z"/>
<path d="M3293 1065 c0 -22 2 -30 4 -17 2 12 2 30 0 40 -3 9 -5 -1 -4 -23z"/>
<path d="M3281 1005 c-1 -11 -4 -31 -6 -45 l-6 -25 11 25 c6 13 9 33 7 45 -4 19 -4 19 -6 0z"/>
<path d="M3245 884 c-54 -141 -201 -204 -311 -134 -96 61 -268 120 -349 120 -35 0 -48 -7 -91 -46 -117 -110 -228 -176 -373 -223 -99 -32 -124 -48 -148 -95 -21 -40 -11 -114 22 -166 l26 -41 -28 15 c-69 35 -124 112 -109 151 12 32 -16 12 -59 -42 -69 -89 -102 -213 -56 -213 11 0 22 -4 25 -8 3 -5 30 -15 61 -22 102 -25 207 7 298 89 37 33 44 35 130 41 133 9 222 61 272 159 30 59 48 75 116 100 71 27 132 80 171 147 16 30 33 54 37 54 4 0 28 -13 54 -30 113 -72 253 -12 318 136 12 25 19 48 16 50 -2 2 -12 -17 -22 -42z"/>
<path d="M1033 710 c-29 -10 -97 -41 -151 -70 -83 -43 -102 -58 -116 -88 -16 -36 -16 -36 1 -14 17 20 22 21 53 11 47 -16 68 -35 95 -90 50 -97 155 -159 273 -159 80 0 97 -6 156 -56 84 -72 224 -95 316 -53 42 19 46 19 55 3 6 -9 18 -26 27 -38 17 -21 17 -21 18 9 0 22 -3 26 -10 15 -15 -24 -73 112 -78 182 -5 68 9 109 49 143 16 13 29 26 29 29 0 10 -91 -34 -127 -61 -42 -32 -93 -107 -93 -137 0 -36 -18 3 -25 55 -8 55 20 130 54 148 31 17 26 28 -16 35 -137 25 -436 122 -453 147 -3 4 -29 -1 -57 -11z"/>
<path d="M375 645 c7 -34 61 -155 70 -155 3 0 -4 19 -16 42 -12 24 -30 65 -41 93 -10 27 -16 37 -13 20z"/>
<path d="M700 458 c-80 -92 -146 -96 -215 -15 -19 22 -35 38 -35 34 0 -18 75 -87 105 -97 44 -14 94 6 141 57 31 34 59 74 52 73 -2 -1 -23 -24 -48 -52z"/>
</g>
<g id="layer103" fill="#576d29" stroke="none">
<path d="M1395 2931 c-22 -10 -61 -36 -86 -58 -45 -38 -50 -40 -131 -45 -53 -4 -102 -13 -130 -26 -59 -26 -124 -85 -150 -136 -31 -62 -55 -83 -115 -102 -107 -34 -196 -146 -210 -265 -5 -50 -10 -58 -68 -114 -104 -101 -135 -187 -114 -318 l13 -78 -37 -69 c-64 -118 -61 -235 10 -342 28 -42 30 -63 18 -165 -4 -33 -4 -74 0 -90 7 -27 8 -25 30 32 12 34 50 116 85 183 l62 123 -12 50 c-9 39 -9 60 1 102 7 28 14 68 15 87 8 150 91 321 208 426 59 54 174 129 183 120 2 -2 -29 -29 -69 -59 -132 -100 -215 -207 -249 -320 -22 -71 -22 -87 -1 -307 13 -134 51 -219 104 -236 16 -5 18 -16 18 -88 0 -132 12 -156 158 -304 70 -71 148 -142 174 -159 26 -17 45 -33 41 -36 -14 -15 253 -114 387 -143 65 -14 127 -19 260 -19 202 1 280 16 427 85 192 90 276 175 431 440 14 23 79 -27 223 -171 99 -101 134 -130 168 -140 38 -11 47 -10 77 6 20 11 42 34 54 59 64 134 85 381 41 505 -39 113 -110 196 -216 255 -98 55 -102 55 -125 -1 -11 -26 -27 -61 -36 -76 -9 -16 -14 -30 -12 -31 1 -1 28 -8 59 -15 100 -21 181 -88 195 -161 l7 -32 -39 21 c-21 12 -42 21 -46 21 -4 0 10 -28 32 -62 21 -35 46 -81 55 -103 l16 -40 -32 38 c-17 21 -40 42 -50 48 -17 9 -18 7 -9 -16 6 -15 15 -35 21 -46 14 -27 60 -149 55 -149 -2 0 -20 25 -40 55 -20 30 -41 55 -46 55 -16 0 -11 -33 10 -67 11 -18 16 -33 12 -33 -4 0 -32 15 -62 34 -52 33 -150 146 -150 174 0 6 -5 12 -10 12 -7 0 -8 -13 -4 -36 9 -47 -11 -38 -33 14 l-15 36 -20 -25 -20 -24 5 25 c3 14 12 57 21 95 18 79 20 143 7 178 -7 19 -2 43 26 111 24 60 36 110 40 159 5 66 3 75 -21 110 -14 21 -26 51 -26 67 0 49 -37 148 -79 214 -54 82 -156 180 -256 246 -77 50 -78 51 -40 45 190 -34 356 -189 440 -410 15 -38 30 -79 34 -90 5 -11 7 20 6 70 -8 266 -154 423 -444 480 -117 23 -150 47 -54 39 309 -27 483 -150 524 -370 7 -35 9 -98 5 -155 l-7 -97 58 -32 c32 -18 90 -63 128 -99 40 -38 51 -45 25 -18 l-45 48 0 112 c0 138 -14 171 -115 267 -65 62 -68 67 -74 123 -13 122 -102 225 -220 258 -37 10 -96 54 -96 71 0 21 -63 99 -103 127 -56 38 -148 65 -200 58 -49 -7 -77 3 -130 47 -80 65 -87 66 -294 65 -176 -1 -186 -2 -154 -16 27 -11 44 -12 75 -4 38 9 39 9 21 -5 -24 -18 -81 -14 -140 9 -57 23 -179 22 -230 -2z m471 -236 c12 -7 36 -43 55 -79 32 -62 36 -66 69 -66 46 -1 108 -30 158 -74 21 -20 45 -36 51 -36 6 0 11 -9 11 -19 0 -11 5 -23 11 -27 6 -3 29 -34 50 -67 34 -52 39 -68 39 -118 0 -57 -36 -179 -59 -202 -14 -14 -14 22 -1 78 6 22 14 71 20 109 9 62 8 72 -12 114 -44 89 -163 183 -261 206 -48 11 -46 -19 6 -72 24 -26 52 -62 62 -80 10 -22 21 -32 31 -28 21 8 17 -8 -9 -32 -26 -25 -37 -20 -37 15 0 33 -55 114 -95 140 -77 51 -162 51 -240 2 -40 -25 -45 -33 -45 -64 0 -48 13 -70 50 -85 41 -17 33 -22 -14 -9 -32 9 -44 7 -79 -11 -57 -30 -110 -73 -147 -121 l-32 -39 39 -16 c72 -31 163 -38 250 -20 85 17 167 54 170 77 2 15 -48 59 -70 63 -14 2 -65 46 -54 46 16 0 115 -61 136 -84 13 -14 21 -32 18 -40 -13 -34 141 -50 210 -21 35 15 56 13 37 -4 -35 -32 -137 -39 -222 -17 -50 14 -57 13 -93 -5 -93 -49 -246 -64 -348 -33 -53 15 -55 15 -113 -11 -71 -32 -155 -43 -198 -25 -36 15 -30 33 6 20 45 -18 127 -12 174 13 36 18 44 27 45 51 1 33 59 91 158 158 32 22 61 46 64 54 3 9 2 34 -3 57 -9 40 -12 43 -66 61 -73 23 -128 16 -192 -25 -38 -23 -53 -42 -77 -94 -19 -40 -28 -72 -24 -85 11 -34 -4 -42 -36 -20 -32 24 -38 41 -11 34 13 -4 21 7 35 46 10 28 31 66 48 84 18 21 27 40 23 50 -9 22 -21 20 -79 -13 -85 -49 -152 -133 -184 -232 -10 -31 -8 -47 15 -120 14 -46 32 -94 41 -107 8 -13 13 -33 11 -45 -6 -37 -82 89 -98 162 -12 56 -11 64 11 118 29 74 82 164 121 209 33 38 95 74 126 74 26 0 35 14 57 87 22 75 33 86 108 108 122 35 335 41 383 10z m417 -162 c-13 -2 -35 -2 -50 0 -16 2 -5 4 22 4 28 0 40 -2 28 -4z m-1319 -138 c-121 -57 -198 -110 -267 -184 -98 -106 -139 -222 -135 -383 3 -114 -11 -131 -43 -51 -19 47 -23 77 -24 163 0 94 3 111 27 161 63 128 213 237 426 309 119 40 124 36 16 -15z m1542 -130 c73 -42 144 -137 157 -210 22 -119 16 -139 -17 -57 -53 128 -133 239 -195 269 -22 11 -38 23 -34 27 9 9 40 -2 89 -29z m-401 -337 c-36 -77 -34 -90 13 -84 l37 5 -39 -11 c-38 -10 -38 -11 -34 -52 7 -62 54 -158 99 -202 35 -35 45 -38 101 -42 51 -3 72 1 108 20 61 31 76 64 61 136 -22 110 -79 151 -213 153 -76 1 -79 2 -43 11 54 13 148 4 186 -19 48 -27 68 -61 82 -137 14 -74 38 -105 58 -76 15 22 3 146 -20 214 -12 33 -20 61 -18 63 7 6 64 -83 87 -137 35 -80 34 -184 -2 -262 -15 -32 -29 -58 -32 -58 -3 0 -3 20 0 44 6 37 3 46 -14 55 -25 13 -96 -6 -142 -39 -74 -53 -160 -32 -242 59 -46 51 -68 107 -68 171 0 40 -19 36 -42 -9 l-16 -33 -11 38 c-26 92 0 162 79 215 24 16 44 29 46 29 2 0 -8 -24 -21 -52z m-750 -93 c22 -13 47 -31 57 -41 21 -24 39 -123 30 -159 l-8 -27 -11 25 c-7 14 -20 30 -30 36 -17 9 -19 4 -18 -67 0 -61 -5 -86 -23 -120 -32 -60 -94 -119 -139 -132 -33 -10 -48 -8 -112 14 -82 28 -121 32 -139 14 -17 -17 -15 -54 4 -86 11 -18 3 -13 -24 16 -22 23 -47 64 -56 89 -29 86 -16 210 33 298 l22 40 -6 -37 c-10 -61 -7 -191 4 -221 11 -28 34 -36 47 -15 4 6 8 44 8 82 2 137 67 189 241 192 l100 2 -90 -7 c-147 -12 -212 -54 -234 -150 -22 -99 15 -163 104 -177 64 -9 110 2 152 39 45 39 69 91 83 180 13 84 0 142 -47 204 -32 41 -32 44 -11 38 13 -4 41 -17 63 -30z m979 -39 c47 -19 76 -61 76 -108 0 -36 -2 -38 -20 -28 -38 20 -87 -32 -61 -64 15 -18 3 -26 -41 -26 -53 0 -92 22 -112 65 -19 40 -18 82 3 77 22 -5 42 20 39 47 -2 19 4 29 22 38 32 16 53 16 94 -1z m-1109 -159 c1 -31 18 -47 45 -40 33 9 35 -64 3 -114 -17 -26 -72 -53 -108 -53 -24 0 -26 3 -20 28 8 41 -25 70 -61 54 -33 -15 -31 -16 -38 14 -10 37 10 89 46 119 26 22 39 25 82 23 48 -3 51 -4 51 -31z m845 -116 c0 -28 -73 -142 -128 -200 -29 -31 -49 -47 -44 -36 5 11 29 60 52 109 23 49 49 119 58 156 l17 67 22 -39 c13 -22 23 -48 23 -57z m-548 -53 c59 -107 119 -238 109 -238 -4 0 -27 13 -50 28 -50 34 -97 98 -135 182 -26 58 -27 62 -12 86 9 13 22 24 29 24 7 0 34 -37 59 -82z m1101 -60 c8 -13 4 -25 -19 -55 -16 -21 -43 -65 -61 -98 -37 -69 -43 -52 -17 49 28 107 68 151 97 104z m-403 -144 c-7 -33 -33 -85 -70 -142 -48 -73 -69 -95 -106 -113 -25 -13 -80 -56 -124 -96 -43 -40 -81 -73 -85 -73 -4 0 -5 21 -1 47 8 62 63 133 163 212 43 34 94 75 114 91 22 17 51 59 75 107 36 71 39 75 42 48 2 -17 -1 -53 -8 -81z m-155 25 c14 -22 -7 -60 -52 -90 -25 -18 -79 -64 -120 -102 -40 -38 -73 -63 -73 -56 0 8 13 42 30 77 40 84 136 182 179 182 16 0 33 -5 36 -11z m487 -172 c-128 -274 -325 -427 -580 -452 -40 -4 -72 -4 -72 1 0 5 35 20 78 33 87 26 206 83 284 135 119 80 253 237 304 355 11 25 20 37 22 28 2 -9 -14 -54 -36 -100z m-1004 -35 c97 -48 143 -77 167 -105 34 -40 89 -146 101 -195 7 -26 6 -26 -37 14 -50 46 -159 120 -266 182 -59 35 -79 53 -116 109 -81 124 -88 153 -25 98 24 -20 103 -66 176 -103z m-390 46 c43 -63 74 -127 70 -146 -2 -13 -21 1 -71 50 -51 52 -67 74 -67 96 0 57 29 57 68 0z m62 -272 c159 -118 357 -176 535 -160 39 4 67 3 64 0 -14 -14 -167 -35 -260 -36 -260 -1 -435 110 -523 330 l-18 45 69 -66 c37 -36 97 -87 133 -113z"/>
<path d="M2850 1807 c0 -64 0 -65 31 -71 36 -7 151 -79 208 -131 23 -21 41 -33 41 -28 0 30 -170 216 -249 272 l-31 22 0 -64z"/>
<path d="M850 903 c0 -12 -27 -183 -35 -225 l-7 -37 54 29 c29 16 80 36 113 44 51 14 75 28 75 46 0 3 -26 22 -58 42 -31 21 -74 53 -94 73 -37 35 -48 41 -48 28z"/>
<path d="M2520 845 c-91 -99 -298 -223 -425 -256 -65 -16 -98 -40 -120 -85 -21 -45 -16 -88 20 -155 14 -27 21 -49 17 -49 -12 0 -83 53 -106 79 -11 12 -22 40 -25 63 l-6 41 -43 -56 c-72 -92 -107 -217 -63 -217 11 0 22 -4 25 -8 3 -5 30 -15 61 -22 102 -25 207 7 298 89 37 33 44 35 130 41 133 9 222 61 272 159 30 59 48 75 116 100 72 27 132 80 171 148 23 40 35 53 47 48 11 -4 13 -3 6 4 -5 5 -30 17 -55 26 -134 51 -185 66 -237 71 -54 6 -60 4 -83 -21z"/>
<path d="M1003 696 c-120 -48 -220 -111 -239 -149 -15 -32 -15 -32 3 -9 17 20 22 21 53 11 47 -16 68 -35 95 -90 50 -97 155 -159 273 -159 80 0 97 -6 156 -56 84 -72 224 -95 316 -53 42 19 46 19 55 3 6 -9 18 -26 27 -38 17 -21 17 -21 17 9 -1 18 -3 23 -6 12 -8 -30 -58 59 -77 136 -21 85 -14 128 32 179 19 21 31 38 27 38 -4 0 -34 -14 -66 -31 -62 -33 -98 -73 -128 -140 -21 -47 -29 -40 -38 29 -7 63 10 114 48 147 35 29 38 27 -86 54 -134 30 -361 109 -375 132 -3 4 -42 -7 -87 -25z"/>
</g>
<g id="layer104" fill="#b82e15" stroke="none">
<path d="M1395 2931 c-22 -10 -61 -36 -86 -58 -45 -38 -50 -40 -131 -45 -53 -4 -102 -13 -130 -26 -59 -26 -124 -85 -150 -136 -31 -62 -55 -83 -115 -102 -107 -34 -196 -146 -210 -265 -5 -50 -10 -58 -68 -114 -104 -101 -135 -187 -114 -318 l13 -78 -37 -69 c-64 -118 -61 -235 10 -342 28 -42 30 -57 18 -174 -10 -98 5 -124 29 -49 9 30 46 111 81 179 60 118 63 127 53 163 -5 20 -7 60 -3 88 3 27 7 72 9 98 1 26 8 53 14 59 7 7 12 22 12 34 0 42 49 166 91 230 23 36 69 90 103 120 59 54 174 129 183 120 2 -2 -29 -29 -69 -59 -132 -100 -215 -207 -249 -320 -22 -71 -22 -87 -1 -307 13 -134 51 -219 104 -236 16 -5 18 -16 18 -88 0 -132 12 -156 158 -304 70 -71 148 -142 174 -159 26 -17 45 -33 41 -36 -14 -15 253 -114 387 -143 65 -14 127 -19 260 -19 202 1 280 16 427 85 192 90 276 175 431 440 14 23 79 -27 223 -171 99 -101 134 -130 168 -140 38 -11 47 -10 77 6 20 11 42 34 54 59 64 134 85 381 41 505 -39 113 -110 196 -216 255 -98 55 -102 55 -125 -1 -11 -26 -27 -61 -36 -76 -9 -16 -14 -30 -12 -31 1 -1 28 -8 59 -15 100 -21 181 -88 195 -161 l7 -32 -39 21 c-21 12 -42 21 -46 21 -4 0 10 -28 32 -62 21 -35 46 -81 55 -103 l16 -40 -32 38 c-17 21 -40 42 -50 48 -17 9 -18 7 -9 -16 6 -15 15 -35 21 -46 14 -27 60 -149 55 -149 -2 0 -20 25 -40 55 -20 30 -41 55 -46 55 -16 0 -11 -33 10 -67 11 -18 16 -33 12 -33 -4 0 -32 15 -62 34 -52 33 -150 146 -150 174 0 6 -5 12 -10 12 -7 0 -8 -13 -4 -36 9 -47 -11 -38 -33 14 l-15 36 -20 -25 -20 -24 6 30 c3 17 13 59 21 95 17 75 19 138 6 173 -7 19 -2 43 26 111 24 60 36 110 40 159 5 66 3 75 -21 110 -14 21 -26 51 -26 67 0 49 -37 148 -79 214 -54 82 -156 180 -256 246 -77 50 -78 51 -40 45 190 -34 356 -189 440 -410 15 -38 30 -79 34 -90 5 -11 7 20 6 70 -8 266 -154 423 -444 480 -103 21 -147 45 -79 45 51 0 197 -26 252 -45 127 -44 232 -140 278 -252 20 -51 23 -76 23 -195 l0 -136 55 -33 c30 -18 87 -62 125 -98 43 -40 52 -47 25 -18 l-45 48 0 112 c0 138 -14 171 -115 267 -65 62 -68 67 -74 123 -13 122 -102 225 -220 258 -37 10 -96 54 -96 71 0 21 -63 99 -103 127 -56 38 -148 65 -200 58 -49 -7 -77 3 -130 47 -80 65 -87 66 -294 65 -176 -1 -186 -2 -154 -16 27 -11 44 -12 75 -4 38 9 39 9 21 -5 -24 -18 -81 -14 -140 9 -57 23 -179 22 -230 -2z m426 -16 c-18 -8 -36 -15 -40 -15 -13 1 45 29 59 29 8 0 0 -6 -19 -14z m-406 -14 c-22 -10 -62 -37 -88 -59 -27 -23 -54 -42 -60 -42 -7 0 -3 6 8 12 11 6 36 25 55 43 38 36 87 64 110 64 8 0 -3 -8 -25 -18z m662 -24 c69 -60 74 -62 157 -68 l81 -6 -76 -1 c-65 -2 -81 1 -107 21 -81 60 -114 87 -104 87 7 0 29 -15 49 -33z m-349 6 c-10 -2 -26 -2 -35 0 -10 3 -2 5 17 5 19 0 27 -2 18 -5z m-483 -88 c-22 -7 -169 -12 -150 -4 11 4 52 8 90 8 39 -1 66 -2 60 -4z m-216 -43 c-53 -34 -88 -73 -112 -127 -18 -41 -63 -79 -107 -89 -16 -4 -12 0 10 10 48 22 68 42 95 94 29 57 118 140 149 140 6 0 -10 -13 -35 -28z m1433 -25 c14 -13 36 -43 47 -65 25 -49 55 -79 96 -98 17 -7 24 -13 17 -14 -40 -1 -110 64 -126 117 -4 12 -28 41 -54 64 -26 23 -38 37 -27 31 11 -5 32 -21 47 -35z m-587 -33 c8 -11 29 -47 47 -81 31 -59 35 -63 68 -63 46 -1 108 -30 158 -74 21 -20 45 -36 51 -36 6 0 11 -9 11 -19 0 -11 5 -23 11 -27 6 -3 29 -34 50 -67 34 -52 39 -68 39 -118 0 -57 -36 -179 -59 -202 -14 -14 -14 22 -1 78 6 22 14 71 20 109 9 62 8 72 -12 114 -44 89 -163 183 -261 206 -48 11 -46 -19 6 -72 24 -26 52 -62 62 -80 10 -22 21 -32 31 -28 21 8 17 -8 -9 -32 -26 -25 -37 -20 -37 15 0 33 -55 114 -95 140 -77 51 -162 51 -240 2 -40 -25 -45 -33 -45 -64 0 -48 13 -70 50 -85 41 -17 33 -22 -14 -9 -32 9 -44 7 -79 -11 -57 -30 -110 -73 -147 -121 l-32 -39 39 -16 c72 -31 163 -38 250 -20 85 17 167 54 170 77 2 15 -48 59 -70 63 -14 2 -65 46 -54 46 16 0 115 -61 136 -84 13 -14 21 -32 18 -40 -13 -34 141 -50 210 -21 35 15 56 13 37 -4 -35 -32 -137 -39 -222 -17 -50 14 -57 13 -93 -5 -93 -49 -246 -64 -348 -33 -53 15 -55 15 -113 -11 -71 -32 -155 -43 -198 -25 -36 15 -30 33 6 20 45 -18 127 -12 174 13 36 18 44 27 45 51 1 33 59 91 158 158 32 22 61 46 64 54 3 9 2 34 -3 57 -9 40 -12 43 -66 61 -73 23 -128 16 -192 -25 -38 -23 -53 -42 -77 -94 -19 -40 -28 -72 -24 -85 11 -34 -4 -42 -36 -20 -32 24 -38 41 -11 34 13 -4 21 7 35 46 10 28 31 66 48 84 18 21 27 40 23 50 -9 22 -21 20 -79 -13 -85 -49 -152 -133 -184 -232 -10 -31 -8 -47 15 -120 14 -46 32 -94 41 -107 8 -13 13 -33 11 -45 -6 -37 -82 89 -98 162 -12 56 -11 64 11 118 29 74 82 164 121 209 34 38 95 74 127 74 25 0 30 8 61 100 l25 75 60 18 c89 27 168 36 288 33 91 -3 110 -7 122 -22z m408 -161 c-13 -2 -35 -2 -50 0 -16 2 -5 4 22 4 28 0 40 -2 28 -4z m-1598 -75 c-27 -29 -50 -55 -52 -57 -2 -2 -3 -1 -3 3 0 8 90 106 98 106 2 0 -17 -24 -43 -52z m360 -27 c-6 -5 -39 -21 -75 -37 -111 -48 -182 -95 -251 -163 -112 -112 -161 -239 -156 -409 3 -126 -12 -137 -49 -36 -39 107 -39 215 0 300 15 32 35 67 44 78 16 18 16 19 -8 7 -21 -10 -22 -9 -6 1 10 7 46 36 79 65 33 28 89 69 125 90 95 56 336 141 297 104z m-439 -165 c-4 -18 -13 -41 -21 -52 -13 -17 -13 -14 0 18 8 21 16 52 16 70 1 19 3 25 6 15 3 -11 2 -34 -1 -51z m1900 -1 c73 -42 144 -137 157 -210 22 -119 16 -139 -17 -57 -53 128 -133 239 -195 269 -22 11 -38 23 -34 27 9 9 40 -2 89 -29z m-2017 -145 c-18 -22 -34 -40 -37 -40 -5 0 12 24 42 58 33 37 29 25 -5 -18z m-67 -205 c3 -40 2 -61 -3 -50 -7 19 -13 132 -5 124 2 -2 6 -35 8 -74z m1683 13 c-32 -69 -33 -92 -2 -84 123 32 227 31 284 -4 45 -27 62 -58 76 -136 14 -72 38 -103 58 -74 15 22 3 146 -20 214 -12 33 -19 61 -17 63 2 2 22 -23 43 -56 50 -74 78 -171 70 -242 -6 -47 -49 -159 -61 -159 -3 0 -3 20 0 44 6 37 3 46 -14 55 -25 13 -96 -6 -142 -39 -74 -53 -160 -32 -242 59 -46 51 -68 107 -68 171 0 40 -19 36 -42 -9 l-16 -33 -11 38 c-26 92 0 162 79 215 24 16 44 29 46 29 2 0 -8 -24 -21 -52z m-750 -93 c22 -13 47 -31 57 -41 21 -24 39 -123 30 -159 l-8 -27 -11 25 c-7 14 -20 30 -30 36 -17 9 -19 4 -18 -67 0 -61 -5 -86 -23 -120 -32 -60 -94 -119 -139 -132 -33 -10 -48 -8 -112 14 -82 28 -121 32 -139 14 -17 -17 -15 -54 4 -86 11 -18 3 -13 -24 16 -86 91 -95 237 -26 387 23 49 23 50 29 43 3 -3 1 -18 -5 -33 -14 -36 -14 -192 -1 -228 11 -28 34 -36 47 -15 4 6 8 44 8 82 1 90 26 134 94 168 40 20 62 23 155 23 85 0 106 3 102 13 -3 8 -5 17 -5 22 0 5 -16 29 -36 55 -32 43 -33 46 -12 40 13 -4 41 -17 63 -30z m-941 -101 c-15 -31 -32 -58 -37 -61 -4 -3 6 21 22 52 17 32 32 72 32 89 l2 31 4 -28 c3 -18 -6 -49 -23 -83z m1656 -213 c0 -28 -73 -142 -128 -200 -29 -31 -49 -47 -44 -36 5 11 29 60 52 109 23 49 49 119 58 156 l17 67 22 -39 c13 -22 23 -48 23 -57z m-548 -53 c59 -107 119 -238 109 -238 -4 0 -27 13 -50 28 -50 34 -97 98 -135 182 -26 58 -27 62 -12 86 9 13 22 24 29 24 7 0 34 -37 59 -82z m1101 -60 c8 -13 4 -25 -19 -55 -16 -21 -43 -65 -61 -98 -37 -69 -43 -52 -17 49 28 107 68 151 97 104z m-403 -144 c-7 -33 -33 -85 -70 -142 -48 -73 -69 -95 -106 -113 -25 -13 -80 -56 -124 -96 -43 -40 -81 -73 -85 -73 -4 0 -5 21 -1 47 8 62 63 133 163 212 43 34 94 75 114 91 22 17 51 59 75 107 36 71 39 75 42 48 2 -17 -1 -53 -8 -81z m-155 25 c14 -22 -7 -60 -52 -90 -25 -18 -79 -64 -120 -102 -40 -38 -73 -63 -73 -56 0 8 13 42 30 77 40 84 136 182 179 182 16 0 33 -5 36 -11z m487 -172 c-128 -274 -325 -427 -580 -452 -40 -4 -72 -4 -72 1 0 5 35 20 78 33 87 26 206 83 284 135 119 80 253 237 304 355 11 25 20 37 22 28 2 -9 -14 -54 -36 -100z m-1004 -35 c97 -48 143 -77 167 -105 34 -40 89 -146 101 -195 7 -26 6 -26 -37 14 -50 46 -159 120 -266 182 -59 35 -79 53 -116 109 -81 124 -88 153 -25 98 24 -20 103 -66 176 -103z m-390 46 c43 -63 74 -127 70 -146 -2 -13 -21 1 -71 50 -51 52 -67 74 -67 96 0 57 29 57 68 0z m62 -272 c159 -118 357 -176 535 -160 39 4 67 3 64 0 -14 -14 -167 -35 -260 -36 -260 -1 -435 110 -523 330 l-18 45 69 -66 c37 -36 97 -87 133 -113z"/>
<path d="M2850 1807 c0 -64 0 -65 30 -71 36 -7 125 -62 193 -118 27 -23 47 -33 47 -25 0 20 -108 145 -176 202 -103 88 -94 86 -94 12z"/>
<path d="M2640 1047 c0 -12 -11 -43 -25 -69 -14 -26 -25 -49 -25 -51 0 -3 22 -7 48 -11 48 -6 148 -50 231 -101 l43 -27 -7 23 c-19 60 -94 146 -201 227 -50 38 -64 40 -64 9z"/>
<path d="M845 863 c-4 -27 -13 -84 -21 -128 -7 -43 -12 -81 -10 -83 2 -2 27 8 55 22 28 15 76 33 108 41 49 13 73 27 73 45 0 3 -26 22 -58 42 -31 21 -74 53 -94 73 -20 19 -39 35 -42 35 -2 0 -8 -21 -11 -47z"/>
</g>
<g id="layer105" fill="#64910a" stroke="none">
<path d="M1395 2931 c-22 -10 -61 -36 -86 -58 -45 -38 -50 -40 -131 -45 -53 -4 -102 -13 -130 -26 -59 -26 -124 -85 -150 -136 -31 -62 -55 -83 -115 -102 -107 -34 -196 -146 -210 -265 -5 -50 -10 -58 -68 -114 -104 -101 -135 -187 -114 -318 l13 -78 -37 -69 c-64 -118 -61 -235 10 -342 28 -42 30 -57 18 -174 -10 -98 5 -124 29 -49 9 30 46 111 81 179 60 118 63 127 53 163 -5 20 -7 60 -3 88 3 27 7 72 9 98 1 26 8 53 14 59 7 7 12 22 12 34 0 42 49 166 91 230 23 36 69 90 103 120 59 54 174 129 183 120 3 -2 -22 -24 -54 -47 -87 -65 -141 -117 -190 -187 -59 -81 -81 -143 -84 -228 -4 -90 17 -286 36 -350 15 -51 56 -104 80 -104 9 0 14 -28 17 -92 3 -78 9 -104 35 -161 18 -37 36 -67 42 -67 5 0 29 -21 53 -47 79 -84 147 -146 206 -185 31 -21 53 -38 47 -38 -16 -1 37 -27 132 -65 349 -141 711 -135 982 17 61 33 201 136 201 147 0 3 27 42 60 86 34 44 73 106 89 138 l27 57 50 -32 c27 -18 106 -89 175 -159 100 -101 134 -130 168 -140 38 -11 47 -10 77 6 20 11 42 34 54 59 64 134 85 381 41 505 -39 113 -110 196 -216 255 -98 55 -102 55 -125 -1 -11 -26 -27 -61 -36 -76 -9 -16 -14 -30 -12 -31 1 -1 28 -8 59 -15 100 -21 181 -88 195 -161 l7 -32 -39 21 c-21 12 -42 21 -46 21 -4 0 10 -28 32 -62 21 -35 46 -81 55 -103 l16 -40 -32 38 c-17 21 -40 42 -50 48 -17 9 -18 7 -9 -16 6 -15 15 -35 21 -46 14 -27 60 -149 55 -149 -2 0 -20 25 -40 55 -20 30 -41 55 -46 55 -16 0 -11 -33 10 -67 11 -18 16 -33 12 -33 -4 0 -32 15 -62 34 -52 33 -150 146 -150 174 0 6 -5 12 -10 12 -7 0 -8 -13 -4 -36 9 -47 -11 -38 -33 14 l-15 36 -19 -25 c-14 -19 -19 -20 -19 -7 0 9 4 28 10 42 16 44 29 179 21 223 -7 35 -2 59 25 140 41 119 46 210 14 258 -11 17 -20 44 -20 62 0 141 -142 336 -335 463 -77 50 -78 51 -40 45 190 -34 356 -189 440 -410 15 -38 30 -79 34 -90 5 -11 7 20 6 70 -8 266 -154 423 -444 480 -103 21 -147 45 -79 45 51 0 197 -26 252 -45 127 -44 232 -140 278 -252 20 -51 23 -76 23 -195 l0 -136 55 -33 c30 -18 87 -62 125 -98 43 -40 52 -47 25 -18 l-45 48 0 112 c0 138 -14 171 -115 267 -65 62 -68 67 -74 123 -13 122 -102 225 -220 258 -37 10 -96 54 -96 71 0 21 -63 99 -103 127 -56 38 -148 65 -200 58 -49 -7 -77 3 -130 47 -80 65 -87 66 -294 65 -176 -1 -186 -2 -154 -16 27 -11 44 -12 75 -4 38 9 39 9 21 -5 -24 -18 -81 -14 -140 9 -57 23 -179 22 -230 -2z m426 -16 c-18 -8 -36 -15 -40 -15 -13 1 45 29 59 29 8 0 0 -6 -19 -14z m-406 -14 c-22 -10 -62 -37 -88 -59 -27 -23 -54 -42 -60 -42 -7 0 -3 6 8 12 11 6 36 25 55 43 38 36 87 64 110 64 8 0 -3 -8 -25 -18z m662 -24 c69 -60 74 -62 157 -68 l81 -6 -76 -1 c-65 -2 -81 1 -107 21 -81 60 -114 87 -104 87 7 0 29 -15 49 -33z m-349 6 c-10 -2 -26 -2 -35 0 -10 3 -2 5 17 5 19 0 27 -2 18 -5z m-483 -88 c-22 -7 -169 -12 -150 -4 11 4 52 8 90 8 39 -1 66 -2 60 -4z m-216 -43 c-53 -34 -88 -73 -112 -127 -18 -41 -63 -79 -107 -89 -16 -4 -12 0 10 10 48 22 68 42 95 94 29 57 118 140 149 140 6 0 -10 -13 -35 -28z m1433 -25 c14 -13 36 -43 47 -65 25 -49 55 -79 96 -98 17 -7 24 -13 17 -14 -40 -1 -110 64 -126 117 -4 12 -28 41 -54 64 -26 23 -38 37 -27 31 11 -5 32 -21 47 -35z m-587 -33 c8 -11 29 -47 47 -81 31 -59 35 -63 68 -63 46 -1 108 -30 158 -74 21 -20 45 -36 51 -36 6 0 11 -7 11 -15 0 -8 16 -36 35 -61 61 -79 67 -99 63 -183 -3 -51 -12 -94 -27 -128 -22 -50 -51 -71 -51 -37 0 20 19 104 30 129 5 11 11 42 14 69 5 39 1 58 -16 94 -44 89 -163 183 -261 206 -48 11 -46 -19 6 -72 24 -26 52 -62 62 -80 10 -22 21 -32 31 -28 21 8 17 -8 -9 -32 -26 -25 -37 -20 -37 15 0 33 -55 114 -95 140 -77 51 -162 51 -240 2 -41 -26 -45 -32 -45 -67 0 -47 12 -63 70 -92 123 -61 147 -75 173 -99 16 -15 26 -33 24 -43 -10 -37 138 -53 210 -23 49 21 67 3 22 -21 -42 -22 -132 -24 -211 -5 -55 14 -58 13 -112 -13 -94 -46 -206 -57 -313 -30 -62 15 -63 15 -129 -11 -73 -29 -182 -37 -209 -15 -22 18 -8 31 21 20 45 -18 127 -12 174 13 36 18 44 27 45 51 1 33 59 91 158 158 32 22 61 46 64 54 3 9 2 34 -3 57 -9 40 -12 43 -66 61 -73 23 -128 16 -192 -25 -38 -23 -53 -42 -77 -94 -19 -40 -28 -72 -24 -85 11 -34 -4 -42 -36 -20 -32 24 -38 41 -11 34 13 -4 21 7 35 46 10 28 31 66 48 84 28 33 31 66 5 66 -25 0 -114 -60 -155 -105 -51 -56 -96 -147 -94 -195 0 -19 20 -81 43 -138 31 -74 40 -106 32 -114 -18 -18 -85 97 -101 175 -13 64 -12 70 10 125 29 73 82 163 121 208 34 38 95 74 127 74 25 0 30 8 61 100 l25 75 60 18 c89 27 168 36 288 33 91 -3 110 -7 122 -22z m408 -161 c-13 -2 -35 -2 -50 0 -16 2 -5 4 22 4 28 0 40 -2 28 -4z m-1598 -75 c-27 -29 -50 -55 -52 -57 -2 -2 -3 -1 -3 3 0 8 90 106 98 106 2 0 -17 -24 -43 -52z m360 -27 c-6 -5 -39 -21 -75 -37 -111 -48 -182 -95 -251 -163 -112 -112 -161 -239 -156 -409 3 -126 -12 -137 -49 -36 -39 107 -39 215 0 300 15 32 35 67 44 78 16 18 16 19 -8 7 -21 -10 -22 -9 -6 1 10 7 46 36 79 65 33 28 89 69 125 90 95 56 336 141 297 104z m-439 -165 c-4 -18 -13 -41 -21 -52 -13 -17 -13 -14 0 18 8 21 16 52 16 70 1 19 3 25 6 15 3 -11 2 -34 -1 -51z m1900 -1 c88 -51 147 -142 165 -254 14 -95 7 -109 -20 -36 -52 142 -132 258 -200 292 -22 11 -38 23 -34 27 9 9 40 -2 89 -29z m-2017 -145 c-18 -22 -34 -40 -37 -40 -5 0 12 24 42 58 33 37 29 25 -5 -18z m-67 -205 c3 -40 2 -61 -3 -50 -7 19 -13 132 -5 124 2 -2 6 -35 8 -74z m1718 70 c0 -3 -11 -22 -25 -43 -13 -20 -28 -53 -31 -71 -7 -32 -6 -34 17 -28 125 33 229 32 286 -3 45 -27 62 -58 76 -136 20 -106 67 -116 67 -14 0 51 -22 146 -47 197 -25 53 -9 48 30 -9 85 -123 110 -262 65 -357 -25 -53 -58 -104 -64 -98 -3 2 2 17 11 33 21 40 19 81 -4 93 -24 13 -96 -7 -141 -39 -74 -53 -160 -32 -242 59 -46 51 -68 107 -68 170 0 17 -4 31 -9 31 -15 0 -41 -42 -41 -65 -1 -18 -2 -18 -15 5 -8 14 -14 52 -15 89 0 54 4 70 26 98 37 49 124 110 124 88z m-801 -136 c55 -28 89 -65 101 -108 11 -41 13 -101 4 -126 -6 -14 -9 -11 -20 13 -7 17 -21 35 -31 40 -17 10 -19 5 -18 -66 0 -61 -5 -86 -23 -120 -32 -60 -94 -119 -139 -132 -33 -10 -48 -8 -112 14 -82 28 -121 32 -139 14 -19 -19 -14 -59 14 -95 14 -18 21 -33 16 -33 -17 0 -84 82 -105 129 -37 82 -24 222 30 330 29 56 42 55 23 -3 -14 -42 -15 -193 -1 -229 11 -28 34 -36 47 -15 4 6 8 44 8 82 1 90 26 134 94 168 40 20 62 23 154 23 60 0 108 2 108 4 0 14 -43 91 -51 91 -4 0 -13 9 -19 20 -14 27 7 27 59 -1z m-925 -115 c-15 -31 -32 -58 -37 -61 -4 -3 6 21 22 52 17 32 32 72 32 89 l2 31 4 -28 c3 -18 -6 -49 -23 -83z m1647 -170 c20 -43 20 -44 -2 -86 -42 -83 -179 -254 -179 -223 0 4 22 53 49 109 46 93 70 159 85 229 8 36 23 27 47 -29z m-572 -30 c12 -15 47 -79 78 -143 90 -184 89 -180 35 -154 -69 33 -182 196 -182 261 0 24 25 62 41 62 4 0 17 -12 28 -26z m1134 -117 c14 -22 12 -27 -38 -102 -29 -44 -56 -92 -59 -107 -3 -15 -10 -28 -16 -28 -24 0 14 167 51 226 24 40 41 43 62 11z m-386 -98 c-13 -109 -112 -276 -187 -314 -44 -23 -131 -92 -178 -141 -13 -13 -27 -24 -32 -24 -17 0 -11 68 8 104 26 48 123 147 195 198 84 60 102 80 142 165 40 84 61 89 52 12z m-168 -23 c23 -27 1 -65 -60 -107 -32 -22 -88 -69 -124 -106 -64 -64 -65 -65 -65 -36 0 49 50 134 118 200 67 65 106 80 131 49z m527 -83 c-12 -49 -85 -195 -130 -258 -53 -73 -158 -174 -222 -211 -92 -54 -170 -76 -289 -80 -123 -4 -123 -5 45 48 158 49 355 180 448 297 29 36 72 103 95 148 42 83 65 107 53 56z m-1220 -23 c27 -23 105 -68 174 -102 71 -35 139 -76 157 -95 33 -33 123 -208 123 -237 0 -10 -15 -1 -42 25 -45 44 -174 133 -269 187 -32 18 -72 49 -91 70 -60 66 -128 192 -104 192 2 0 26 -18 52 -40z m-202 -78 c42 -61 74 -137 63 -148 -9 -10 -114 88 -136 126 -19 35 -21 46 -12 66 17 38 36 29 85 -44z m113 -294 c149 -91 278 -124 454 -116 125 6 131 -4 18 -29 -103 -22 -294 -22 -379 1 -89 24 -171 70 -230 128 -53 52 -120 162 -120 196 0 11 -4 24 -10 27 -5 3 -10 11 -10 17 0 6 42 -30 94 -80 55 -52 132 -113 183 -144z"/>
<path d="M2131 1836 c-25 -6 -46 -17 -49 -24 -8 -25 39 -150 74 -196 56 -73 130 -94 212 -61 63 27 82 52 82 107 0 83 -37 145 -103 173 -43 18 -152 18 -216 1z m226 -46 c44 -27 58 -58 54 -123 -1 -15 -5 -16 -21 -7 -43 23 -88 -34 -55 -70 16 -18 15 -19 -18 -25 -79 -15 -146 33 -155 111 -4 43 -3 46 15 40 26 -8 47 17 39 47 -4 18 0 27 17 35 35 17 89 14 124 -8z"/>
<path d="M1157 1716 c-97 -26 -140 -78 -145 -174 -4 -88 18 -117 103 -133 131 -24 219 65 232 235 l6 73 -33 6 c-48 10 -109 7 -163 -7z m42 -42 c28 -6 32 -10 27 -30 -8 -31 19 -58 44 -44 16 8 19 5 25 -19 17 -80 -43 -151 -129 -151 -34 0 -35 1 -24 25 10 22 9 29 -10 48 -22 21 -24 21 -52 5 -29 -16 -29 -16 -35 13 -14 61 22 123 85 148 31 12 31 12 69 5z"/>
<path d="M2519 844 c-91 -98 -298 -222 -424 -255 -64 -16 -99 -40 -118 -81 -19 -42 -10 -110 22 -161 32 -53 23 -61 -29 -27 -63 42 -101 94 -93 131 3 16 3 29 0 29 -12 0 -83 -109 -104 -160 -29 -70 -30 -110 -4 -110 11 0 22 -4 25 -8 3 -5 30 -15 61 -22 102 -25 207 7 298 89 37 33 44 35 130 41 133 9 222 61 272 159 30 59 48 75 116 100 72 27 132 80 171 148 22 39 35 53 47 49 11 -4 10 -2 -3 9 -31 24 -43 18 -66 -30 -30 -62 -105 -127 -172 -148 -59 -18 -81 -38 -121 -108 -55 -97 -142 -148 -250 -149 -77 0 -121 -15 -157 -55 -26 -28 -98 -70 -107 -62 -2 3 6 8 18 12 12 4 43 27 68 50 63 58 80 65 153 65 128 0 213 48 267 149 36 68 63 91 138 115 61 20 127 79 153 139 l19 42 -22 9 c-85 35 -197 66 -241 66 -12 0 -33 -12 -47 -26z"/>
<path d="M1010 697 c-134 -56 -228 -114 -245 -150 -16 -32 -16 -32 2 -9 17 20 22 21 53 11 47 -16 68 -35 95 -90 50 -97 155 -159 273 -159 80 0 97 -6 156 -56 84 -72 224 -95 316 -53 42 19 46 19 55 3 6 -9 18 -26 27 -38 17 -21 17 -21 17 9 -1 19 -3 23 -6 11 -4 -15 -10 -11 -30 23 -13 22 -29 41 -34 41 -6 0 -8 4 -4 10 3 5 -2 32 -11 60 -25 77 -15 133 32 181 21 21 34 39 30 39 -19 0 -129 -65 -134 -79 -3 -9 -18 -30 -33 -48 -15 -17 -30 -46 -34 -64 -9 -40 -20 -25 -35 46 -9 44 -8 56 10 92 11 23 31 51 46 62 31 24 33 23 -91 50 -133 29 -361 109 -375 131 -3 5 -39 -6 -80 -23z m238 -364 c-10 -2 -26 -2 -35 0 -10 3 -2 5 17 5 19 0 27 -2 18 -5z m325 -130 c-13 -2 -35 -2 -50 0 -16 2 -5 4 22 4 28 0 40 -2 28 -4z"/>
</g>
<g id="layer106" fill="#64675e" stroke="none">
<path d="M1395 2931 c-22 -10 -61 -36 -86 -58 -45 -38 -50 -40 -131 -45 -53 -4 -102 -13 -130 -26 -59 -26 -124 -85 -150 -136 -31 -62 -55 -83 -115 -102 -107 -34 -196 -146 -210 -265 -5 -50 -10 -58 -68 -114 -104 -101 -135 -187 -114 -318 l13 -78 -37 -69 c-64 -118 -61 -235 10 -342 28 -42 30 -57 18 -174 -10 -98 5 -124 29 -49 9 30 46 111 81 179 35 69 58 123 50 120 -7 -3 -31 12 -52 33 -21 22 -59 56 -85 76 -26 21 -50 47 -53 58 -5 13 6 46 30 95 33 66 36 80 29 117 -4 23 -8 72 -8 108 -1 85 38 167 104 217 55 42 69 66 81 144 19 114 79 189 189 234 79 31 95 45 126 105 29 59 102 123 161 143 26 9 75 16 110 16 70 0 104 13 143 55 65 70 209 97 303 56 61 -26 100 -26 157 1 77 36 242 19 282 -29 7 -9 31 -29 52 -45 34 -25 48 -28 113 -28 42 0 72 -4 69 -9 -3 -5 9 -9 27 -8 51 1 137 -61 171 -123 31 -56 71 -98 101 -106 33 -8 48 -40 29 -59 -8 -8 -10 -15 -4 -15 25 0 145 -87 180 -131 69 -87 85 -144 85 -301 l0 -136 55 -33 c30 -18 87 -62 125 -98 43 -40 52 -47 25 -18 l-45 48 0 112 c0 138 -14 171 -115 267 -65 62 -68 67 -74 123 -13 122 -102 225 -220 258 -37 10 -96 54 -96 71 0 21 -63 99 -103 127 -56 38 -148 65 -200 58 -49 -7 -77 3 -130 47 -80 65 -87 66 -294 65 -176 -1 -186 -2 -154 -16 27 -11 44 -12 75 -4 38 9 39 9 21 -5 -24 -18 -81 -14 -140 9 -57 23 -179 22 -230 -2z"/>
<path d="M1495 2720 c-130 -12 -180 -36 -220 -105 -6 -10 -31 -23 -56 -29 -60 -16 -114 -50 -147 -94 -15 -21 -31 -40 -36 -43 -4 -4 -2 -9 5 -12 8 -3 -2 -12 -26 -22 -84 -36 -182 -88 -227 -121 -151 -111 -234 -281 -225 -462 2 -46 8 -77 15 -80 7 -2 12 7 12 21 0 45 47 167 91 233 23 36 69 90 103 120 59 54 174 129 183 120 3 -2 -22 -24 -54 -47 -87 -65 -141 -117 -190 -187 -59 -81 -81 -143 -84 -228 -4 -90 17 -286 36 -350 15 -51 56 -104 80 -104 9 0 14 -28 17 -92 3 -78 9 -104 35 -160 18 -38 36 -68 42 -68 5 0 29 -21 53 -47 79 -84 147 -146 206 -185 31 -21 53 -38 47 -38 -16 -1 37 -27 132 -65 349 -141 711 -135 982 17 61 33 201 136 201 147 0 3 27 42 60 86 34 44 73 106 89 138 l27 57 50 -32 c27 -18 106 -89 175 -159 100 -101 134 -130 168 -140 38 -11 47 -10 77 6 20 11 42 34 54 59 64 134 85 381 41 505 -39 113 -110 196 -216 255 -98 55 -102 55 -125 -1 -11 -26 -27 -61 -36 -76 -9 -16 -14 -30 -12 -31 1 -1 28 -8 59 -15 100 -21 181 -88 195 -161 l7 -32 -39 21 c-21 12 -42 21 -46 21 -4 0 10 -28 32 -63 21 -34 46 -80 55 -102 l16 -40 -32 38 c-17 21 -40 42 -50 48 -17 9 -18 7 -9 -16 6 -15 15 -35 21 -46 14 -27 60 -149 55 -149 -2 0 -20 25 -40 55 -20 30 -41 55 -46 55 -16 0 -11 -33 10 -67 11 -18 16 -33 12 -33 -4 0 -32 15 -62 34 -52 33 -150 146 -150 174 0 6 -5 12 -10 12 -7 0 -8 -13 -4 -36 9 -47 -11 -38 -33 14 l-15 36 -19 -25 c-14 -19 -19 -20 -19 -7 0 9 4 28 10 42 16 44 29 179 21 223 -7 35 -2 59 25 140 41 119 46 210 14 258 -11 17 -20 44 -20 62 0 141 -142 336 -335 463 -77 50 -78 51 -40 45 190 -34 356 -189 440 -410 15 -38 30 -79 34 -90 5 -11 7 20 6 70 -8 265 -161 429 -446 481 -77 14 -99 22 -120 45 -29 31 -84 49 -150 49 -38 0 -58 8 -113 44 -58 38 -151 74 -162 63 -3 -2 11 -30 31 -62 19 -32 37 -67 41 -77 4 -13 15 -18 42 -18 48 -1 110 -29 160 -74 21 -20 45 -36 51 -36 6 0 11 -7 11 -15 0 -8 16 -36 35 -61 61 -79 67 -99 63 -183 -3 -51 -12 -94 -27 -128 -22 -50 -51 -71 -51 -37 0 20 19 104 30 129 5 11 11 42 14 69 5 39 1 58 -16 94 -44 89 -163 183 -261 206 -48 11 -46 -19 6 -72 24 -26 52 -62 62 -80 10 -22 21 -32 31 -28 21 8 17 -8 -9 -32 -26 -25 -37 -20 -37 15 0 33 -55 114 -95 140 -77 51 -162 51 -240 2 -41 -26 -45 -32 -45 -67 0 -47 12 -63 70 -92 123 -61 147 -75 173 -99 16 -15 26 -33 24 -43 -10 -37 138 -53 210 -23 49 21 67 3 22 -21 -42 -22 -132 -24 -211 -5 -55 14 -58 13 -112 -13 -94 -46 -206 -57 -313 -30 -62 15 -63 15 -129 -11 -73 -29 -182 -37 -209 -15 -22 18 -8 31 21 20 45 -18 127 -12 174 13 36 18 44 27 45 51 1 33 59 91 158 158 32 22 61 46 64 54 3 9 2 34 -3 57 -9 40 -12 43 -66 61 -73 23 -128 16 -192 -25 -38 -23 -53 -42 -77 -94 -19 -40 -28 -72 -24 -85 11 -34 -4 -42 -36 -20 -32 24 -38 41 -11 34 13 -4 21 7 35 46 10 28 31 66 48 84 28 33 31 66 5 66 -25 0 -114 -60 -155 -105 -51 -56 -96 -147 -94 -195 0 -19 20 -81 43 -138 31 -74 40 -106 32 -114 -18 -18 -85 97 -101 175 -13 64 -12 70 10 125 29 73 82 163 121 208 34 38 95 74 127 74 25 0 30 8 61 100 l25 75 78 22 c44 13 131 27 195 32 l117 9 -115 -1 c-63 -1 -146 -4 -185 -7z m788 -187 c-13 -2 -35 -2 -50 0 -16 2 -5 4 22 4 28 0 40 -2 28 -4z m223 -268 c88 -51 147 -142 165 -254 14 -95 7 -109 -20 -36 -52 142 -132 258 -200 292 -22 11 -38 23 -34 27 9 9 40 -2 89 -29z m-366 -280 c0 -3 -11 -22 -25 -43 -13 -20 -28 -53 -31 -71 -7 -32 -6 -34 17 -28 125 33 229 32 286 -3 45 -27 62 -58 76 -136 20 -106 67 -116 67 -14 0 51 -22 146 -47 197 -25 53 -9 48 30 -9 85 -123 110 -262 65 -357 -25 -53 -58 -104 -64 -98 -3 2 2 17 11 33 21 40 19 81 -4 93 -24 13 -96 -7 -141 -39 -74 -53 -160 -32 -242 59 -46 51 -68 107 -68 170 0 17 -4 31 -9 31 -15 0 -41 -42 -41 -65 -1 -18 -2 -18 -15 5 -8 14 -14 52 -15 89 0 54 4 70 26 98 37 49 124 110 124 88z m-801 -136 c55 -28 89 -65 101 -108 11 -41 13 -101 4 -126 -6 -14 -9 -11 -20 13 -7 17 -21 35 -31 40 -17 10 -19 5 -18 -66 0 -61 -5 -86 -23 -120 -32 -60 -94 -119 -139 -132 -33 -10 -48 -8 -112 14 -82 28 -121 32 -139 14 -19 -19 -14 -59 14 -95 14 -18 21 -33 16 -33 -17 0 -84 82 -105 129 -37 82 -24 222 30 330 29 56 42 55 23 -3 -14 -42 -15 -193 -1 -229 11 -28 34 -36 47 -15 4 6 8 44 8 82 1 90 26 134 94 168 40 20 62 23 154 23 60 0 108 2 108 4 0 14 -43 91 -51 91 -4 0 -13 9 -19 20 -14 27 7 27 59 -1z m722 -285 c20 -43 20 -44 -2 -86 -42 -83 -179 -254 -179 -223 0 4 22 53 49 109 46 93 70 159 85 229 8 36 23 27 47 -29z m-572 -30 c12 -15 47 -79 78 -143 90 -184 89 -180 35 -154 -69 33 -182 196 -182 261 0 24 25 62 41 62 4 0 17 -12 28 -26z m1134 -117 c14 -22 12 -27 -38 -102 -29 -44 -56 -92 -59 -107 -3 -15 -10 -28 -16 -28 -24 0 14 167 51 226 24 40 41 43 62 11z m-386 -98 c-13 -109 -112 -276 -187 -314 -44 -23 -131 -92 -178 -141 -13 -13 -27 -24 -32 -24 -17 0 -11 68 8 104 26 48 123 147 195 198 84 60 102 80 142 165 40 84 61 89 52 12z m-168 -23 c23 -27 1 -65 -60 -107 -32 -22 -88 -69 -124 -106 -64 -64 -65 -65 -65 -36 0 49 50 134 118 200 67 65 106 80 131 49z m527 -83 c-12 -49 -85 -195 -130 -258 -53 -73 -158 -174 -222 -211 -92 -54 -170 -76 -289 -80 -123 -4 -123 -5 45 48 158 49 355 180 448 297 29 36 72 103 95 148 42 83 65 107 53 56z m-1220 -23 c27 -23 105 -68 174 -102 71 -35 139 -76 157 -95 33 -33 123 -208 123 -237 0 -10 -15 -1 -42 25 -45 44 -174 133 -269 187 -32 18 -72 49 -91 70 -60 66 -128 192 -104 192 2 0 26 -18 52 -40z m-202 -78 c42 -61 74 -137 63 -148 -9 -10 -114 88 -136 126 -19 35 -21 46 -12 66 17 38 36 29 85 -44z m113 -294 c149 -91 278 -124 454 -116 125 6 131 -4 18 -29 -103 -22 -294 -22 -379 1 -89 24 -171 70 -230 128 -53 52 -120 162 -120 196 0 11 -4 24 -10 27 -5 3 -10 11 -10 17 0 6 42 -30 94 -80 55 -52 132 -113 183 -144z"/>
<path d="M2167 1774 c-13 -13 -7 -52 9 -58 22 -9 46 13 42 38 -3 21 -37 34 -51 20z"/>
<path d="M2340 1650 c-11 -11 -20 -26 -20 -33 0 -18 32 -47 51 -47 40 0 55 71 20 90 -26 13 -28 13 -51 -10z"/>
<path d="M1226 1645 c-8 -22 -8 -21 10 -39 21 -22 56 -3 52 27 -4 28 -52 37 -62 12z"/>
<path d="M1070 1500 c-24 -24 -24 -29 -4 -58 21 -30 54 -25 73 10 14 24 14 28 -3 47 -24 26 -41 26 -66 1z"/>
<path d="M1555 2679 c-113 -18 -132 -28 -149 -73 -21 -55 -41 -145 -34 -152 4 -3 20 2 37 10 46 24 166 21 215 -5 38 -20 39 -20 60 -1 31 29 55 39 118 51 46 8 66 7 99 -4 l41 -15 -6 31 c-7 36 -51 126 -73 152 -14 14 -34 17 -137 16 -67 -1 -143 -5 -171 -10z"/>
<path d="M1496 2159 c-24 -19 -26 -24 -13 -36 10 -10 34 -13 88 -11 63 3 69 5 41 12 -18 5 -42 19 -55 32 -27 29 -28 29 -61 3z"/>
<path d="M3191 1646 c12 -20 23 -36 25 -36 7 0 -25 58 -36 65 -5 3 -1 -10 11 -29z"/>
<path d="M535 1336 c-124 -267 -159 -521 -91 -659 38 -78 106 -137 158 -137 39 0 39 1 73 73 42 88 75 212 75 281 l-1 51 -31 -59 c-30 -54 -92 -116 -104 -103 -3 3 -1 22 4 43 16 65 23 126 13 120 -5 -3 -12 -20 -15 -38 -3 -18 -17 -51 -31 -73 l-26 -40 7 88 c6 79 5 87 -11 87 -16 0 -17 8 -12 69 6 74 25 119 88 213 22 31 39 60 39 63 0 3 -12 18 -26 33 -14 15 -32 39 -40 55 -8 15 -17 27 -20 27 -3 0 -25 -42 -49 -94z"/>
<path d="M2650 1047 c0 -8 -11 -36 -25 -63 -14 -27 -25 -52 -25 -56 0 -5 17 -8 38 -8 39 0 172 -60 240 -108 38 -27 39 -25 11 25 -39 70 -62 95 -143 159 -84 66 -96 73 -96 51z"/>
<path d="M353 820 c0 -47 2 -66 4 -42 2 23 2 61 0 85 -2 23 -4 4 -4 -43z"/>
<path d="M2519 844 c-91 -98 -298 -222 -424 -255 -27 -7 -62 -20 -76 -30 -27 -19 -65 -86 -55 -96 8 -9 63 17 83 39 26 29 79 48 132 48 61 0 139 38 179 86 18 21 32 42 32 47 0 27 45 66 97 85 54 20 123 72 123 93 0 5 -15 9 -33 9 -23 0 -41 -8 -58 -26z"/>
<path d="M2820 745 c-30 -62 -105 -127 -172 -148 -59 -18 -81 -38 -121 -108 -55 -96 -142 -148 -249 -149 -82 0 -112 -11 -160 -57 -22 -22 -41 -32 -49 -28 -7 5 -10 4 -6 -2 6 -10 -41 -38 -50 -29 -2 2 6 8 19 12 17 5 -2 12 -77 26 -165 30 -170 31 -177 42 -8 13 -28 -36 -28 -70 0 -17 6 -24 19 -24 11 0 22 -4 25 -8 3 -5 30 -15 61 -22 102 -25 207 7 298 89 37 33 44 35 130 41 133 9 222 61 272 159 30 59 48 75 116 100 72 27 132 80 171 148 22 39 35 53 47 49 11 -4 10 -2 -3 9 -31 24 -43 18 -66 -30z"/>
<path d="M1010 697 c-134 -56 -228 -114 -245 -150 -16 -32 -16 -32 2 -9 17 20 22 21 53 11 47 -16 68 -35 95 -90 50 -97 155 -159 273 -159 80 0 97 -6 156 -56 84 -72 224 -95 316 -53 42 19 46 19 55 3 6 -9 18 -26 27 -38 17 -21 17 -21 17 9 -1 19 -3 23 -6 11 -4 -15 -10 -11 -30 23 -13 22 -28 41 -33 41 -5 0 -7 6 -5 13 8 21 -22 90 -40 93 -35 5 -85 35 -79 47 5 8 4 9 -4 2 -6 -6 -18 -28 -25 -50 l-14 -40 -11 35 c-5 19 -13 47 -16 62 -3 15 -15 30 -26 33 -11 3 -20 11 -20 16 0 5 -6 9 -14 9 -8 0 -18 9 -21 20 -3 11 -12 20 -20 20 -7 0 -16 7 -19 16 -6 15 -4 15 11 3 10 -7 29 -23 43 -35 14 -12 35 -25 47 -28 19 -6 25 -1 36 27 8 18 27 43 42 55 32 25 34 24 -90 51 -133 29 -361 109 -375 131 -3 5 -39 -6 -80 -23z m238 -364 c-10 -2 -26 -2 -35 0 -10 3 -2 5 17 5 19 0 27 -2 18 -5z m325 -130 c-13 -2 -35 -2 -50 0 -16 2 -5 4 22 4 28 0 40 -2 28 -4z"/>
<path d="M2969 717 c4 -5 32 -7 62 -5 l54 3 -62 5 c-34 3 -58 1 -54 -3z"/>
<path d="M1670 499 c-62 -34 -77 -46 -68 -55 13 -12 75 17 108 51 41 43 32 44 -40 4z"/>
<path d="M459 464 c13 -26 77 -84 94 -84 7 0 -2 9 -19 19 -17 10 -43 34 -58 52 -15 19 -23 24 -17 13z"/>
</g>
<g id="layer107" fill="#f56205" stroke="none">
<path d="M1495 2720 c-130 -12 -180 -36 -220 -105 -6 -10 -31 -23 -56 -29 -60 -16 -114 -50 -147 -94 -15 -21 -31 -40 -37 -44 -6 -4 -1 -8 10 -8 11 0 -30 -25 -92 -55 -227 -108 -341 -234 -379 -417 -15 -70 -11 -218 5 -218 3 0 12 28 18 62 27 141 135 291 279 388 42 27 80 50 85 50 20 0 7 -19 -33 -45 -160 -106 -272 -258 -289 -394 -7 -61 -4 -100 22 -301 12 -92 40 -155 79 -171 27 -13 28 -15 32 -103 3 -76 9 -102 35 -158 18 -38 36 -68 42 -68 5 0 29 -21 53 -47 79 -84 147 -146 206 -185 31 -21 53 -38 47 -38 -16 -1 37 -27 132 -65 349 -141 711 -135 982 17 61 33 201 136 201 147 0 3 27 42 60 86 34 44 73 106 89 138 l28 58 62 -42 c33 -22 107 -90 163 -149 182 -195 262 -195 322 -1 48 151 52 326 11 441 -40 112 -121 200 -237 256 -67 32 -74 33 -85 17 -7 -9 -13 -23 -13 -32 0 -8 -11 -33 -25 -57 -28 -47 -27 -48 29 -59 102 -18 190 -93 210 -177 l6 -27 -42 24 c-59 34 -63 31 -30 -17 67 -98 114 -214 55 -135 -16 20 -38 44 -50 52 -20 14 -18 6 16 -72 65 -147 66 -170 4 -78 -26 40 -39 53 -47 45 -8 -8 -5 -22 11 -50 24 -45 24 -46 -20 -24 -58 30 -105 74 -148 137 -38 57 -41 60 -37 29 6 -43 -11 -37 -35 11 l-19 37 -19 -22 -18 -23 -1 22 c0 12 5 34 10 49 18 45 29 166 21 211 -7 35 -2 59 25 140 40 117 45 207 15 257 -10 17 -22 57 -26 89 -18 153 -168 341 -359 452 -59 35 -47 43 31 20 190 -55 328 -199 414 -430 l19 -50 -4 97 c-3 86 -7 105 -38 170 -54 112 -142 191 -268 239 -50 19 -174 44 -285 59 l-60 7 55 2 55 2 -23 19 c-30 25 -84 40 -143 40 -38 0 -58 8 -113 44 -59 39 -151 74 -163 63 -2 -3 6 -20 19 -39 13 -18 32 -53 42 -76 18 -39 22 -42 58 -42 49 0 116 -32 158 -75 19 -19 40 -35 47 -35 7 0 13 -9 13 -19 0 -11 4 -21 9 -23 5 -1 27 -32 51 -68 41 -65 42 -65 38 -145 -4 -86 -38 -185 -64 -185 -18 0 -17 20 2 95 9 33 19 86 23 118 6 52 4 64 -20 105 -52 91 -144 163 -242 190 -58 16 -60 -9 -4 -66 24 -26 52 -61 61 -79 11 -23 21 -30 32 -26 24 9 14 -27 -13 -44 -25 -17 -25 -16 -37 39 -9 40 -67 110 -111 135 -53 30 -142 31 -201 2 -60 -28 -68 -41 -60 -94 l7 -45 92 -43 c101 -47 167 -98 167 -128 0 -12 10 -23 26 -29 39 -15 139 -12 184 6 45 18 66 11 35 -12 -49 -36 -134 -40 -241 -12 -38 10 -47 9 -97 -16 -95 -46 -207 -57 -314 -30 -62 15 -63 15 -129 -11 -73 -29 -182 -37 -209 -15 -24 20 -8 29 32 18 49 -13 118 -6 167 18 31 15 40 25 41 46 1 35 40 76 137 145 43 30 80 59 83 64 4 5 3 29 0 53 -6 36 -12 46 -40 59 -85 41 -181 26 -247 -38 -40 -39 -80 -130 -72 -163 8 -29 -10 -35 -40 -11 -30 24 -34 39 -8 33 13 -4 20 5 30 38 7 24 28 63 47 86 32 41 37 72 10 72 -24 0 -132 -78 -168 -122 -46 -56 -80 -131 -80 -178 1 -19 20 -81 43 -138 31 -74 40 -106 32 -114 -17 -17 -86 99 -102 172 -15 72 -8 107 48 215 49 94 132 177 195 194 46 13 48 15 63 70 29 101 35 106 121 130 43 11 130 25 193 30 l115 9 -115 -1 c-63 -1 -146 -4 -185 -7z m994 -444 c63 -32 144 -122 165 -182 16 -48 33 -174 23 -174 -3 0 -17 31 -32 69 -50 131 -139 254 -205 281 -16 7 -27 16 -24 21 8 14 21 11 73 -15z m-349 -291 c0 -3 -11 -22 -24 -43 -25 -39 -44 -102 -29 -102 4 1 35 7 68 15 181 44 295 -13 311 -156 8 -69 28 -94 51 -64 20 26 11 122 -17 201 -35 98 -35 103 -6 69 14 -16 43 -64 63 -105 31 -63 38 -88 41 -152 4 -81 -10 -128 -61 -201 -25 -36 -33 -28 -12 13 9 17 15 43 13 58 -3 23 -8 27 -41 30 -29 2 -54 -5 -103 -32 -101 -56 -150 -49 -239 35 -58 55 -85 112 -85 181 0 56 -30 46 -46 -16 l-7 -29 -13 24 c-7 13 -13 53 -14 88 0 54 4 70 26 98 37 49 124 110 124 88z m-801 -136 c55 -28 89 -65 101 -108 11 -41 13 -101 4 -126 -6 -14 -9 -11 -20 13 -7 17 -21 35 -31 40 -17 9 -18 4 -18 -72 0 -76 -2 -84 -37 -137 -41 -64 -91 -106 -135 -115 -20 -4 -58 3 -112 22 -64 21 -88 25 -109 18 -37 -13 -40 -50 -8 -97 34 -49 17 -47 -29 4 -79 88 -99 180 -67 307 21 81 82 207 67 137 -3 -16 -9 -74 -12 -128 -6 -101 6 -157 33 -157 21 0 26 18 28 100 1 92 17 120 87 160 37 21 62 25 155 30 l112 5 -20 43 c-11 23 -24 42 -29 42 -4 0 -13 9 -19 20 -14 27 7 27 59 -1z m722 -285 c20 -43 20 -44 -2 -86 -42 -83 -179 -254 -179 -223 0 4 22 53 49 109 46 93 70 159 85 229 8 36 23 27 47 -29z m-572 -30 c12 -15 47 -79 78 -143 90 -184 89 -180 35 -154 -69 33 -182 196 -182 261 0 24 25 62 41 62 4 0 17 -12 28 -26z m1134 -117 c14 -22 12 -27 -38 -102 -29 -44 -56 -92 -59 -107 -3 -15 -10 -28 -16 -28 -24 0 14 167 51 226 24 40 41 43 62 11z m-386 -98 c-13 -109 -112 -276 -187 -314 -44 -23 -131 -92 -178 -141 -13 -13 -27 -24 -32 -24 -17 0 -11 68 8 104 26 48 123 147 195 198 84 60 102 80 142 165 40 84 61 89 52 12z m-168 -23 c23 -27 1 -65 -60 -107 -32 -22 -88 -69 -124 -106 -64 -64 -65 -65 -65 -36 0 49 50 134 118 200 67 65 106 80 131 49z m527 -83 c-12 -49 -85 -195 -130 -258 -53 -73 -158 -174 -222 -211 -92 -54 -170 -76 -289 -80 -123 -4 -123 -5 45 48 158 49 355 180 448 297 29 36 72 103 95 148 42 83 65 107 53 56z m-1220 -23 c27 -23 105 -68 174 -102 71 -35 139 -76 157 -95 33 -33 123 -208 123 -237 0 -10 -15 -1 -42 25 -45 44 -174 133 -269 187 -32 18 -72 49 -91 70 -60 66 -128 192 -104 192 2 0 26 -18 52 -40z m-202 -78 c42 -61 74 -137 63 -148 -9 -10 -114 88 -136 126 -19 35 -21 46 -12 66 17 38 36 29 85 -44z m113 -294 c149 -91 278 -124 454 -116 125 6 131 -4 18 -29 -103 -22 -294 -22 -379 1 -89 24 -171 70 -230 128 -53 52 -120 162 -120 196 0 11 -4 24 -10 27 -5 3 -10 11 -10 17 0 6 42 -30 94 -80 55 -52 132 -113 183 -144z"/>
<path d="M1494 2156 l-28 -23 22 -12 c13 -7 50 -11 90 -9 59 3 63 5 34 12 -18 5 -42 19 -55 32 -27 29 -30 29 -63 0z"/>
<path d="M2853 1806 l-1 -54 46 -18 c43 -16 111 -58 186 -116 l29 -22 -13 25 c-13 24 -227 239 -238 239 -4 0 -8 -24 -9 -54z"/>
<path d="M2650 1047 c0 -8 -11 -36 -25 -63 -14 -27 -25 -52 -25 -56 0 -5 17 -8 38 -8 37 0 162 -56 236 -105 l29 -19 -8 24 c-16 50 -69 113 -148 176 -85 66 -97 73 -97 51z"/>
<path d="M837 788 c-9 -67 -15 -123 -14 -124 2 -2 24 8 50 21 27 13 74 29 105 36 50 11 72 23 72 39 0 3 -18 13 -39 23 -21 9 -64 42 -96 72 -31 30 -58 55 -59 55 -1 0 -10 -55 -19 -122z"/>
</g>
<g id="layer108" fill="#798a5a" stroke="none">
<path d="M1395 2931 c-22 -10 -61 -36 -86 -58 -45 -38 -50 -40 -131 -45 -53 -4 -102 -13 -130 -26 -59 -26 -124 -85 -150 -136 -31 -62 -55 -83 -115 -102 -107 -34 -196 -146 -210 -265 -5 -50 -10 -58 -68 -114 -104 -101 -135 -187 -114 -318 l13 -78 -37 -69 c-64 -118 -61 -235 10 -342 28 -42 30 -57 18 -174 -5 -46 -4 -78 3 -90 9 -15 12 -6 13 46 1 55 3 60 9 30 4 -19 8 -28 9 -19 0 8 32 77 70 152 38 74 63 133 56 131 -7 -3 -33 14 -57 38 -25 24 -69 64 -99 90 l-53 47 38 73 c41 80 41 81 30 208 -9 112 13 168 96 243 67 61 76 75 85 142 17 120 86 204 203 249 70 27 74 30 111 94 47 80 69 102 137 136 40 20 67 26 117 26 81 0 109 10 169 61 90 76 190 96 293 60 75 -26 111 -26 177 0 42 17 68 20 123 17 77 -5 120 -23 178 -75 50 -45 75 -53 158 -53 115 0 199 -47 256 -144 41 -70 56 -83 138 -113 75 -28 144 -96 169 -168 58 -163 66 -179 110 -212 78 -57 121 -182 97 -283 l-10 -45 62 -60 c39 -38 45 -43 17 -12 l-45 48 0 112 c0 138 -14 171 -115 267 -65 62 -68 67 -74 123 -13 122 -102 225 -220 258 -37 10 -96 54 -96 71 0 21 -63 99 -103 127 -56 38 -148 65 -200 58 -49 -7 -77 3 -130 47 -80 65 -87 66 -294 65 -176 -1 -186 -2 -154 -16 27 -11 44 -12 75 -4 38 9 39 9 21 -5 -24 -18 -81 -14 -140 9 -57 23 -179 22 -230 -2z m-969 -1574 c3 -10 3 -21 0 -24 -3 -4 -6 0 -6 8 0 8 -11 31 -25 51 -14 20 -25 40 -25 44 0 12 49 -57 56 -79z"/>
<path d="M1495 2720 c-130 -12 -180 -36 -220 -105 -6 -10 -31 -23 -56 -29 -60 -16 -114 -50 -147 -94 -15 -21 -31 -40 -37 -44 -6 -4 -1 -8 10 -8 11 0 -30 -25 -92 -55 -227 -108 -341 -234 -379 -417 -15 -70 -11 -218 5 -218 3 0 12 28 18 62 27 141 135 291 279 388 42 27 80 50 85 50 20 0 7 -19 -33 -45 -115 -76 -206 -177 -258 -287 -17 -35 -30 -69 -30 -76 0 -7 22 5 49 27 71 55 168 107 280 150 l97 36 -9 38 c-13 52 -3 93 45 189 53 107 133 189 201 207 46 13 48 15 63 70 29 101 35 106 121 130 43 11 130 25 193 30 l115 9 -115 -1 c-63 -1 -146 -4 -185 -7z"/>
<path d="M1870 2701 c0 -5 6 -13 13 -19 7 -6 26 -38 42 -72 28 -58 30 -60 67 -60 49 0 116 -32 158 -75 19 -19 40 -35 47 -35 7 0 13 -9 13 -19 0 -11 4 -21 9 -23 5 -1 27 -32 50 -67 37 -58 41 -70 41 -128 0 -59 2 -63 23 -63 51 0 198 -61 267 -110 15 -11 31 -20 34 -20 11 0 -52 115 -90 166 -39 52 -58 68 -108 96 -53 29 -5 33 51 4 98 -49 168 -149 187 -268 5 -26 18 -45 50 -71 l43 -36 -9 62 c-23 165 -168 349 -362 462 -59 35 -47 43 31 20 190 -55 328 -199 414 -430 l19 -50 -4 97 c-3 86 -7 105 -38 170 -54 112 -142 191 -268 239 -50 19 -174 44 -285 59 l-60 7 55 2 55 2 -23 19 c-30 25 -84 40 -143 40 -38 0 -58 8 -108 41 -73 49 -171 83 -171 60z"/>
<path d="M2639 2536 c9 -11 8 -18 -4 -30 -9 -9 -11 -16 -5 -16 20 0 139 -81 166 -113 l27 -32 -7 30 c-13 50 -80 130 -130 154 -54 25 -63 26 -47 7z"/>
<path d="M2895 2055 l0 -133 51 -31 c29 -17 54 -31 57 -31 3 0 10 21 15 48 17 80 -9 174 -67 235 -55 60 -56 58 -56 -88z"/>
<path d="M2167 1773 c-15 -14 -6 -51 13 -56 25 -6 44 16 35 43 -6 19 -34 27 -48 13z"/>
<path d="M1375 1596 c0 -76 -2 -84 -37 -137 -41 -64 -91 -106 -135 -115 -20 -4 -58 3 -112 22 -64 21 -88 25 -109 18 -32 -11 -39 -41 -18 -82 12 -24 26 -31 84 -45 88 -21 126 -21 187 0 99 33 164 132 188 285 11 73 3 109 -30 126 -17 9 -18 4 -18 -72z"/>
<path d="M1227 1646 c-11 -28 4 -47 32 -44 20 2 26 8 26 28 0 20 -6 26 -26 28 -17 2 -29 -3 -32 -12z"/>
<path d="M2331 1638 c-17 -43 31 -85 64 -58 20 17 19 66 -1 74 -31 12 -55 6 -63 -16z"/>
<path d="M2879 1632 c-6 -15 -21 -48 -34 -74 -14 -26 -21 -49 -17 -51 4 -3 25 -8 46 -12 102 -18 190 -93 210 -177 l6 -27 -42 24 c-59 34 -63 31 -30 -17 67 -98 114 -214 55 -135 -16 20 -38 44 -50 52 -20 14 -18 6 16 -72 65 -147 66 -170 4 -78 -26 40 -39 53 -47 45 -8 -8 -5 -22 11 -50 24 -45 24 -46 -20 -24 -58 30 -105 74 -148 137 -38 57 -41 60 -37 29 6 -43 -11 -37 -35 11 l-19 37 -20 -22 -19 -23 5 35 c3 19 8 46 11 60 3 14 -12 -22 -34 -80 -22 -58 -36 -107 -31 -108 33 -12 138 -103 219 -189 173 -187 255 -186 315 6 62 196 51 391 -28 526 -45 77 -147 155 -252 195 -21 9 -26 6 -35 -18z"/>
<path d="M1070 1500 c-11 -11 -20 -23 -20 -28 0 -18 33 -52 50 -52 17 0 50 34 50 52 0 11 -38 48 -50 48 -5 0 -19 -9 -30 -20z"/>
<path d="M2483 810 c-112 -106 -229 -174 -379 -219 -49 -15 -80 -32 -101 -54 -34 -35 -51 -77 -33 -77 17 0 65 27 80 45 21 25 78 45 129 45 61 0 139 38 179 86 18 21 32 42 32 47 0 27 45 66 97 85 54 20 123 72 123 93 0 5 -15 9 -32 9 -26 -1 -46 -13 -95 -60z"/>
<path d="M995 692 c-33 -15 -89 -43 -124 -62 l-64 -34 34 -14 c47 -19 67 -39 95 -94 29 -58 64 -92 129 -125 42 -22 62 -26 124 -25 87 1 107 -6 159 -52 58 -53 116 -76 192 -76 63 0 150 28 150 47 -1 28 -30 87 -45 89 -35 5 -85 35 -79 47 5 8 4 9 -4 2 -6 -6 -18 -28 -25 -50 l-14 -40 -11 35 c-5 19 -13 47 -16 62 -3 15 -15 30 -26 33 -11 3 -20 11 -20 16 0 5 -6 9 -14 9 -8 0 -18 9 -21 20 -3 11 -12 20 -20 20 -7 0 -16 7 -19 16 -6 15 -4 15 11 3 10 -7 29 -23 43 -35 43 -37 66 -39 79 -5 7 16 23 39 37 52 29 27 31 39 5 39 -42 0 -253 60 -364 104 -65 25 -122 46 -125 45 -4 0 -34 -13 -67 -27z"/>
<path d="M776 564 c-3 -8 -2 -13 3 -10 12 8 72 -13 95 -33 10 -9 29 -37 41 -62 50 -97 155 -159 273 -159 80 0 97 -6 156 -56 83 -71 224 -95 315 -54 23 11 47 17 52 14 5 -3 6 2 3 10 -8 20 -12 20 -87 -5 -102 -34 -187 -15 -285 66 -54 44 -55 45 -131 45 -121 1 -210 45 -262 130 -45 73 -71 102 -105 116 -43 18 -60 18 -68 -2z"/>
<path d="M1683 505 c-78 -39 -108 -82 -39 -55 21 8 105 80 93 80 -2 0 -26 -11 -54 -25z"/>
<path d="M1862 468 c-16 -16 -15 -28 3 -28 8 0 15 9 15 20 0 23 -2 24 -18 8z"/>
<path d="M1762 290 c-12 -30 -11 -31 58 -60 43 -18 66 -21 115 -17 33 2 73 11 88 18 28 13 25 14 -70 31 -162 29 -168 31 -175 42 -4 6 -11 0 -16 -14z"/>
</g>
<g id="layer109" fill="#7e7e82" stroke="none">
<path d="M1395 2931 c-22 -10 -61 -36 -86 -58 -45 -38 -50 -40 -131 -45 -53 -4 -102 -13 -130 -26 -59 -26 -124 -85 -150 -136 -31 -62 -55 -83 -115 -102 -107 -34 -196 -146 -210 -265 -5 -50 -10 -58 -68 -114 -104 -101 -135 -187 -114 -318 l13 -78 -37 -69 c-64 -118 -61 -235 10 -342 28 -42 30 -57 18 -174 -5 -46 -4 -78 3 -90 9 -15 11 -9 12 35 0 30 5 80 11 110 13 60 10 69 -46 171 -13 25 -24 56 -24 70 0 19 3 16 13 -15 7 -22 26 -60 42 -84 31 -48 35 -88 20 -186 -7 -45 -1 -37 62 90 38 77 65 142 60 143 -4 2 -28 22 -52 45 -24 23 -64 60 -90 82 l-46 41 -10 -41 c-9 -38 -9 -37 -4 15 3 35 17 76 38 115 43 80 45 91 30 165 -12 61 -8 120 12 175 15 41 65 104 99 125 42 26 60 58 70 125 17 118 95 218 191 245 59 17 99 50 129 110 48 95 144 153 254 152 80 0 106 9 151 53 77 75 203 102 305 66 74 -26 106 -26 175 0 43 17 70 20 125 17 77 -5 121 -23 178 -75 50 -45 75 -53 158 -53 115 0 199 -47 256 -144 41 -70 56 -83 138 -113 75 -28 144 -96 169 -168 58 -163 66 -179 110 -212 78 -57 121 -182 97 -283 l-10 -45 62 -60 c39 -38 45 -43 17 -12 l-45 48 0 112 c0 138 -14 171 -115 267 -65 62 -68 67 -74 123 -13 122 -102 225 -220 258 -37 10 -96 54 -96 71 0 21 -63 99 -103 127 -56 38 -148 65 -200 58 -49 -7 -77 3 -130 47 -80 65 -87 66 -294 65 -176 -1 -186 -2 -154 -16 27 -11 44 -12 75 -4 38 9 39 9 21 -5 -24 -18 -81 -14 -140 9 -57 23 -179 22 -230 -2z"/>
<path d="M1495 2720 c-130 -12 -180 -36 -220 -105 -6 -10 -32 -23 -58 -30 -52 -13 -118 -55 -141 -90 -8 -12 -22 -30 -31 -39 -15 -15 -15 -16 2 -17 10 0 -31 -24 -92 -53 -130 -63 -219 -126 -274 -195 -84 -107 -127 -244 -115 -369 7 -83 15 -83 33 1 30 137 136 282 277 377 42 27 80 50 85 50 20 0 7 -19 -33 -45 -115 -76 -206 -177 -258 -287 -17 -35 -30 -69 -30 -76 0 -7 23 5 50 27 67 53 176 112 281 151 l87 33 -2 66 c-1 61 3 76 43 157 56 113 133 194 203 213 l48 14 21 69 c11 38 28 77 38 87 26 26 148 53 276 61 l110 7 -115 0 c-63 -1 -146 -4 -185 -7z"/>
<path d="M1913 2630 c41 -78 43 -80 80 -80 49 0 115 -32 157 -75 19 -19 40 -35 47 -35 7 0 13 -9 13 -19 0 -11 4 -21 9 -23 5 -1 27 -32 50 -67 37 -58 41 -70 41 -128 0 -59 2 -63 23 -63 51 0 198 -61 267 -110 15 -11 31 -20 34 -20 11 0 -52 115 -90 166 -39 52 -58 68 -108 96 -53 29 -5 33 51 4 98 -49 168 -149 187 -268 5 -26 18 -45 50 -71 l43 -36 -9 62 c-23 165 -168 349 -362 462 -59 35 -47 43 31 20 190 -55 328 -199 414 -430 l19 -50 -4 97 c-3 86 -7 105 -38 170 -54 112 -142 191 -268 239 -50 19 -174 44 -285 59 l-60 7 48 2 c26 0 47 5 47 10 0 17 -76 44 -142 50 -55 6 -76 13 -122 45 -46 31 -128 66 -157 66 -4 0 11 -36 34 -80z"/>
<path d="M1537 2674 c-43 -8 -87 -19 -97 -24 -22 -12 -56 -99 -61 -155 -4 -44 -6 -43 61 -19 55 19 139 12 188 -17 l34 -19 29 24 c51 43 154 62 222 42 27 -8 28 -7 21 20 -8 35 -39 98 -66 137 -19 27 -20 27 -136 26 -64 0 -152 -7 -195 -15z"/>
<path d="M1963 2504 c-4 -10 11 -33 40 -62 24 -26 52 -61 61 -79 11 -23 21 -30 32 -26 24 9 14 -27 -13 -44 -25 -17 -25 -16 -37 39 -9 40 -67 110 -111 135 -53 30 -142 31 -201 2 -60 -28 -68 -41 -60 -94 l7 -45 92 -43 c101 -47 167 -98 167 -128 0 -12 10 -23 26 -29 37 -14 139 -12 178 4 18 7 51 12 74 11 47 -2 50 2 53 81 3 61 -25 115 -92 182 -70 69 -203 128 -216 96z"/>
<path d="M1450 2455 c-25 -8 -62 -30 -82 -50 -40 -39 -80 -130 -72 -163 8 -29 -10 -35 -40 -11 -30 24 -34 39 -8 33 13 -4 20 5 30 38 7 24 28 63 47 86 32 41 37 72 10 72 -24 0 -132 -78 -167 -121 -72 -89 -93 -157 -72 -228 12 -43 18 -49 47 -54 17 -3 36 -1 40 3 5 4 25 3 45 -2 48 -13 117 -6 166 18 31 15 40 25 41 46 1 35 40 76 137 145 43 30 80 59 83 64 4 5 3 29 0 53 -6 37 -12 46 -42 60 -50 24 -111 28 -163 11z"/>
<path d="M1502 2164 c-26 -18 -29 -39 -6 -48 9 -3 46 -6 82 -5 65 0 66 1 34 13 -19 6 -44 22 -57 34 -27 26 -25 26 -53 6z"/>
<path d="M2150 1947 c-41 -11 -46 -16 -59 -55 -7 -24 -11 -45 -9 -48 3 -2 34 2 69 11 186 44 299 -12 315 -156 8 -69 28 -94 51 -64 26 35 -4 221 -42 259 -49 49 -232 79 -325 53z"/>
<path d="M1095 1813 c-67 -27 -149 -86 -156 -113 -12 -42 -10 -197 3 -225 12 -26 32 -33 44 -14 3 6 7 46 8 89 1 92 17 120 87 160 37 21 62 25 155 30 l112 5 -20 43 -20 42 -87 -1 c-54 0 -101 -6 -126 -16z"/>
<path d="M2167 1773 c-14 -13 -7 -42 12 -52 24 -13 45 9 36 39 -6 19 -34 27 -48 13z"/>
<path d="M2042 1758 c-24 -31 -23 -61 3 -139 14 -44 34 -90 43 -101 90 -112 149 -144 247 -135 84 8 180 51 195 87 35 84 -28 105 -136 46 -101 -56 -150 -49 -239 35 -58 55 -85 112 -85 181 0 39 -10 48 -28 26z"/>
<path d="M1375 1596 c0 -76 -2 -84 -37 -137 -41 -64 -91 -106 -135 -115 -20 -4 -58 3 -112 22 -116 39 -162 19 -131 -56 9 -21 24 -33 58 -45 216 -74 365 28 405 277 11 73 3 109 -30 126 -17 9 -18 4 -18 -72z"/>
<path d="M1231 1646 c-17 -20 -3 -46 24 -46 29 0 38 13 30 40 -7 23 -37 26 -54 6z"/>
<path d="M2331 1638 c-17 -43 31 -85 64 -58 18 15 19 52 3 68 -20 20 -58 14 -67 -10z"/>
<path d="M2882 1638 c-7 -7 -12 -19 -12 -27 0 -8 -11 -33 -25 -57 -28 -47 -27 -48 29 -59 102 -18 190 -93 210 -177 l6 -27 -42 24 c-59 34 -63 31 -30 -17 67 -98 114 -214 55 -135 -16 20 -38 44 -50 52 -20 14 -18 6 16 -72 65 -147 66 -170 4 -78 -26 40 -39 53 -47 45 -8 -8 -5 -22 11 -50 24 -45 24 -46 -20 -24 -58 30 -105 74 -148 137 -38 57 -41 60 -37 29 6 -43 -11 -37 -35 11 l-19 37 -20 -22 -19 -23 5 35 c3 19 8 46 11 60 3 14 -12 -22 -34 -80 -22 -58 -36 -107 -31 -108 33 -12 138 -103 219 -189 173 -187 255 -186 315 6 48 151 52 326 11 441 -38 107 -117 195 -223 249 -68 34 -82 37 -100 19z"/>
<path d="M1078 1509 c-29 -16 -23 -67 8 -81 23 -11 29 -10 45 11 24 29 24 36 -1 61 -23 23 -28 24 -52 9z"/>
<path d="M538 1334 c-128 -272 -161 -503 -93 -652 43 -95 118 -153 179 -138 44 11 126 242 126 356 l0 45 -22 -45 c-25 -51 -110 -140 -115 -123 -3 7 0 29 6 50 6 21 11 54 11 73 0 33 -2 32 -25 -24 -22 -54 -64 -116 -51 -76 2 8 7 50 11 92 5 67 4 77 -10 72 -12 -5 -15 3 -15 48 0 78 21 137 78 224 l51 75 -32 43 c-18 24 -37 51 -42 61 -9 15 -18 2 -57 -81z"/>
<path d="M3304 1225 c0 -66 1 -92 3 -57 2 34 2 88 0 120 -2 31 -3 3 -3 -63z"/>
<path d="M353 860 c0 -25 2 -35 4 -22 2 12 2 32 0 45 -2 12 -4 2 -4 -23z"/>
<path d="M2483 810 c-112 -106 -229 -174 -379 -219 -49 -15 -80 -32 -101 -54 -34 -35 -51 -77 -33 -77 17 0 65 27 80 45 21 25 78 45 129 45 60 0 141 39 181 88 17 20 30 42 30 48 0 26 43 64 91 79 48 16 129 76 129 96 0 5 -15 9 -32 9 -26 -1 -46 -13 -95 -60z"/>
<path d="M353 775 c0 -22 2 -30 4 -17 2 12 2 30 0 40 -3 9 -5 -1 -4 -23z"/>
<path d="M2836 755 c-34 -80 -98 -138 -181 -165 -62 -19 -83 -36 -110 -91 -55 -108 -156 -169 -281 -169 -71 0 -105 -13 -144 -55 -66 -72 -205 -96 -310 -55 -61 24 -60 24 -60 5 0 -8 9 -15 19 -15 11 0 22 -4 25 -8 3 -5 30 -15 61 -22 102 -25 207 7 298 89 37 33 44 35 130 41 133 9 222 61 272 159 30 59 48 75 117 101 68 25 136 85 177 157 23 41 27 53 15 57 -9 4 -19 -6 -28 -29z"/>
<path d="M944 666 c-61 -29 -114 -58 -118 -64 -3 -6 4 -14 16 -17 32 -10 77 -54 93 -91 38 -90 129 -147 245 -152 105 -4 112 -6 172 -57 63 -55 137 -80 212 -72 68 7 129 36 120 56 -3 9 -10 31 -16 49 -5 18 -12 31 -16 28 -4 -2 -25 4 -47 14 -53 25 -52 25 -65 -15 -15 -46 -26 -37 -40 30 -8 39 -17 56 -31 60 -10 4 -19 11 -19 16 0 5 -6 9 -14 9 -8 0 -18 9 -21 20 -3 11 -12 20 -20 20 -7 0 -16 7 -19 16 -6 15 -4 15 11 3 10 -7 29 -23 43 -35 43 -37 66 -39 79 -5 7 16 23 39 37 52 29 27 31 39 5 39 -42 0 -253 60 -364 104 -65 25 -122 46 -125 45 -4 0 -57 -24 -118 -53z"/>
<path d="M776 564 c-3 -8 -2 -13 3 -10 12 8 72 -13 95 -33 10 -9 29 -37 41 -62 50 -97 155 -159 273 -159 80 0 97 -6 156 -56 83 -71 224 -95 315 -54 23 11 47 17 52 14 5 -3 6 2 3 10 -8 20 -12 20 -87 -5 -101 -34 -189 -14 -282 64 -49 41 -51 42 -145 48 -62 4 -107 12 -130 24 -62 32 -110 76 -134 124 -28 53 -59 85 -99 100 -39 15 -54 14 -61 -5z"/>
<path d="M1683 505 c-52 -26 -96 -65 -74 -65 20 0 66 27 100 59 40 37 39 38 -26 6z"/>
<path d="M1861 466 c-8 -9 -11 -19 -7 -23 9 -9 29 13 24 27 -2 8 -8 7 -17 -4z"/>
</g>
<g id="layer110" fill="#9cbe4c" stroke="none">
<path d="M1495 2720 c-130 -12 -180 -36 -220 -105 -6 -10 -32 -23 -58 -30 -52 -13 -118 -55 -141 -90 -8 -12 -23 -30 -32 -40 -17 -17 -16 -17 17 -11 19 4 -19 -18 -84 -48 -137 -64 -228 -126 -285 -193 -92 -111 -140 -259 -124 -388 9 -74 12 -73 32 15 23 99 75 188 164 276 67 67 174 144 200 144 18 0 0 -21 -46 -53 -133 -93 -246 -234 -272 -340 l-7 -28 51 40 c67 53 176 112 282 151 l87 33 -6 57 c-5 53 -2 64 40 154 58 121 139 209 210 227 46 11 46 11 67 80 11 39 29 78 39 88 26 26 148 53 276 61 l110 7 -115 0 c-63 -1 -146 -4 -185 -7z"/>
<path d="M1890 2678 c12 -18 31 -54 43 -80 20 -44 25 -48 59 -48 20 0 49 -5 65 -11 30 -11 152 -100 153 -110 0 -4 22 -40 50 -80 47 -70 50 -77 50 -141 0 -64 1 -68 23 -68 51 0 198 -61 268 -111 41 -29 38 -8 -15 81 -46 79 -101 137 -151 163 -24 12 -27 17 -14 22 26 10 111 -39 163 -92 47 -48 78 -113 91 -190 5 -33 16 -49 49 -77 l43 -35 -9 55 c-10 66 -36 137 -74 201 -42 72 -168 192 -264 252 l-85 53 50 -6 c63 -8 175 -61 243 -116 82 -66 143 -160 220 -340 9 -21 11 -15 11 41 1 113 -39 218 -116 300 -102 109 -216 154 -483 189 l-55 7 48 2 c26 0 47 5 47 10 0 17 -76 44 -142 50 -55 6 -76 13 -122 45 -47 32 -128 66 -159 66 -5 0 1 -15 13 -32z"/>
<path d="M2644 2532 c2 -4 1 -14 -4 -22 -6 -10 7 -22 48 -47 32 -19 74 -51 95 -71 l38 -37 -12 32 c-13 40 -82 119 -120 138 -31 16 -53 20 -45 7z"/>
<path d="M1960 2499 c0 -6 19 -30 43 -52 23 -23 51 -59 60 -80 15 -31 21 -36 33 -26 23 19 18 -24 -5 -45 -23 -21 -41 -13 -41 18 0 24 -46 101 -76 128 -61 54 -168 63 -244 22 -52 -28 -62 -46 -53 -100 5 -32 12 -38 82 -70 117 -54 171 -92 178 -125 4 -21 14 -31 40 -40 45 -14 139 -8 180 13 19 10 35 12 39 7 9 -14 58 -6 66 11 4 8 7 40 7 71 1 67 -29 120 -108 191 -68 61 -201 112 -201 77z"/>
<path d="M1475 2461 c-43 -11 -76 -29 -113 -64 -36 -34 -74 -123 -66 -155 8 -29 -10 -35 -40 -11 -29 23 -34 37 -10 35 10 -1 22 16 34 46 10 26 32 65 48 86 72 91 -36 64 -134 -33 -50 -49 -102 -142 -106 -187 -1 -13 4 -44 11 -70 11 -40 17 -47 45 -51 17 -2 33 -1 36 4 3 5 24 4 45 -2 51 -14 123 -6 173 20 32 16 39 25 35 41 -7 27 55 93 149 157 37 25 69 51 72 58 2 7 2 31 -1 53 -5 34 -10 42 -42 56 -47 20 -98 27 -136 17z"/>
<path d="M2900 2082 c0 -55 -2 -112 -5 -128 -5 -27 -1 -32 51 -62 32 -18 59 -30 61 -28 11 11 14 125 4 161 -13 51 -63 130 -90 145 -21 10 -21 9 -21 -88z"/>
<path d="M2150 1947 c-41 -11 -45 -16 -57 -56 -7 -25 -12 -46 -10 -47 1 -1 29 4 62 12 73 17 155 18 207 2 68 -20 118 -98 118 -184 0 -17 7 -38 16 -45 14 -11 18 -10 31 6 19 26 12 105 -16 196 -20 64 -23 67 -69 87 -102 44 -190 53 -282 29z"/>
<path d="M1095 1813 c-22 -9 -65 -32 -95 -52 -62 -41 -67 -52 -69 -172 -1 -82 13 -139 34 -139 23 0 29 22 27 86 -4 76 14 123 59 156 51 38 93 48 201 48 l99 0 -23 43 -23 42 -85 2 c-60 2 -97 -3 -125 -14z"/>
<path d="M2164 1765 c-9 -23 3 -45 25 -45 25 0 34 14 26 40 -7 23 -43 27 -51 5z"/>
<path d="M2042 1758 c-24 -31 -23 -61 3 -139 14 -44 34 -90 43 -101 90 -112 149 -144 247 -135 34 3 89 18 123 33 55 23 63 31 73 65 7 20 9 45 6 53 -11 28 -74 19 -145 -20 -100 -56 -159 -47 -243 37 -51 51 -78 111 -79 172 0 47 -9 58 -28 35z"/>
<path d="M1378 1604 c3 -55 -1 -74 -23 -119 -31 -64 -104 -132 -150 -141 -21 -4 -60 3 -116 21 -121 37 -163 18 -128 -59 8 -17 27 -30 58 -41 216 -74 367 30 404 280 9 62 8 74 -7 98 -30 45 -41 34 -38 -39z"/>
<path d="M1237 1653 c-15 -14 -7 -53 11 -53 30 0 45 16 37 39 -6 20 -34 28 -48 14z"/>
<path d="M2334 1646 c-9 -24 0 -58 19 -70 36 -23 75 35 47 70 -16 18 -59 18 -66 0z"/>
<path d="M2858 1580 l-34 -71 25 -5 c112 -25 189 -76 222 -148 28 -61 24 -68 -23 -41 -24 14 -46 25 -50 25 -4 0 11 -27 33 -61 40 -59 69 -118 69 -138 0 -6 -19 10 -41 34 -23 25 -43 44 -45 42 -2 -2 12 -39 31 -83 18 -43 37 -92 41 -109 5 -24 -2 -18 -37 32 -48 69 -75 71 -41 3 l20 -41 -22 7 c-58 18 -147 102 -190 179 l-17 30 4 -33 c5 -41 -11 -37 -38 10 l-20 35 -18 -21 c-18 -21 -18 -21 -13 14 3 19 8 46 11 60 7 32 -1 15 -41 -93 l-32 -88 57 -39 c32 -21 102 -85 155 -142 54 -57 114 -113 134 -125 46 -29 101 -30 135 -3 52 41 97 213 97 375 0 165 -44 274 -148 366 -48 42 -149 99 -176 99 -8 0 -29 -31 -48 -70z"/>
<path d="M354 1583 c-9 -46 11 -119 49 -178 34 -53 39 -90 23 -190 -7 -45 -1 -37 62 90 38 77 65 142 60 143 -4 2 -28 22 -52 45 -24 23 -64 60 -90 82 l-46 41 -6 -33z"/>
<path d="M1090 1512 c-38 -13 -41 -67 -5 -84 32 -14 55 4 55 43 0 30 -24 50 -50 41z"/>
<path d="M2505 829 c-98 -102 -280 -210 -403 -240 -28 -7 -67 -25 -86 -41 -34 -28 -65 -88 -45 -88 16 0 64 27 79 45 21 25 78 45 129 45 60 0 141 39 181 88 17 20 30 42 30 48 0 26 43 64 91 79 48 16 129 76 129 96 0 5 -15 9 -33 9 -26 0 -42 -9 -72 -41z"/>
<path d="M967 676 c-54 -25 -111 -53 -125 -62 l-27 -18 27 -11 c37 -15 77 -54 93 -91 37 -90 129 -147 245 -152 105 -4 112 -6 172 -57 63 -55 137 -80 212 -72 68 7 129 36 120 56 -3 9 -10 31 -16 49 -5 18 -12 31 -16 28 -4 -2 -25 4 -47 14 -53 25 -52 25 -65 -15 -15 -46 -26 -37 -40 30 -8 39 -17 56 -31 60 -10 4 -19 11 -19 16 0 5 -6 9 -14 9 -8 0 -18 9 -21 20 -3 11 -12 20 -20 20 -7 0 -16 7 -19 16 -6 15 -4 15 11 3 10 -7 29 -23 43 -35 14 -12 35 -25 47 -28 18 -6 24 -2 28 17 4 14 20 37 36 53 35 34 36 44 5 44 -60 0 -276 67 -466 144 -8 3 -59 -14 -113 -38z"/>
<path d="M1675 499 c-45 -24 -86 -59 -68 -59 24 0 78 32 96 56 22 29 22 29 -28 3z"/>
<path d="M1766 295 c-11 -30 -7 -35 42 -56 56 -25 128 -28 197 -9 l49 14 -99 18 c-163 29 -170 31 -176 40 -3 5 -9 2 -13 -7z"/>
</g>
<g id="layer111" fill="#9e9e9c" stroke="none">
<path d="M1395 2931 c-22 -10 -61 -36 -86 -58 -45 -38 -50 -40 -131 -45 -53 -4 -102 -13 -130 -26 -59 -26 -124 -85 -150 -136 -31 -62 -55 -83 -115 -102 -107 -34 -196 -146 -210 -265 -5 -50 -10 -58 -68 -114 -104 -101 -135 -187 -114 -318 l13 -78 -37 -69 c-64 -118 -61 -235 10 -342 28 -42 29 -54 18 -179 -5 -47 -4 -79 2 -82 6 -4 13 38 17 109 l7 116 -29 46 c-68 107 -70 210 -7 330 l38 73 -11 63 c-26 140 -7 203 94 303 58 57 74 80 79 110 13 82 18 99 33 128 41 80 83 114 215 169 22 10 45 29 55 47 43 80 80 123 134 156 52 32 67 36 150 42 94 6 130 20 168 66 27 33 95 58 175 65 l80 7 -80 1 c-58 1 -91 -3 -120 -17z"/>
<path d="M1669 2933 c27 -11 44 -12 75 -4 37 9 39 8 22 -5 -11 -8 -36 -15 -55 -15 -32 -2 -33 -2 -8 -6 16 -3 52 5 80 16 29 11 61 22 72 24 11 3 -34 5 -100 5 -115 0 -119 0 -86 -15z"/>
<path d="M1973 2939 c52 -12 95 -36 139 -75 43 -38 54 -41 159 -47 121 -6 199 -58 270 -179 24 -40 35 -48 100 -73 99 -37 170 -107 194 -191 27 -93 36 -106 30 -45 -13 116 -103 220 -219 252 -37 10 -96 54 -96 71 0 21 -63 99 -103 127 -56 38 -148 65 -200 58 -49 -7 -77 3 -130 47 -59 48 -100 66 -144 65 l-38 -1 38 -9z"/>
<path d="M1629 2925 c18 -8 36 -15 40 -15 13 1 -45 29 -59 29 -8 0 0 -6 19 -14z"/>
<path d="M1880 2697 c0 -3 16 -31 35 -63 19 -32 35 -64 35 -71 0 -8 14 -13 39 -13 22 0 52 -5 68 -11 29 -11 152 -100 153 -110 0 -3 22 -39 49 -80 45 -67 50 -81 53 -139 l3 -65 41 -6 c57 -10 151 -50 217 -92 33 -22 57 -31 57 -24 0 7 -20 46 -44 87 -46 79 -101 137 -151 163 -24 12 -27 17 -14 22 26 10 111 -39 163 -92 47 -48 78 -112 90 -188 5 -30 17 -48 47 -73 l39 -33 0 29 c0 43 -28 129 -63 197 -43 81 -172 209 -277 274 l-85 53 50 -6 c63 -8 175 -61 243 -116 82 -66 143 -160 220 -340 9 -21 11 -15 11 41 1 113 -39 218 -116 300 -102 109 -231 159 -478 187 l-60 7 50 5 50 5 -29 20 c-20 13 -50 20 -95 23 -92 4 -106 8 -143 41 -18 15 -46 35 -63 43 -32 16 -95 33 -95 25z"/>
<path d="M1551 2675 c-122 -22 -120 -21 -142 -73 -12 -26 -23 -71 -26 -100 l-6 -52 48 21 c59 26 146 22 201 -10 l35 -21 26 24 c44 41 163 64 221 43 19 -7 22 -5 22 15 0 30 -43 121 -69 147 -19 19 -32 21 -128 20 -60 0 -141 -7 -182 -14z"/>
<path d="M1357 2599 c-10 -6 -49 -12 -87 -14 -95 -5 -169 -47 -206 -116 -13 -26 -12 -27 9 -22 31 7 -43 -32 -130 -68 -92 -39 -198 -113 -250 -176 -90 -107 -138 -252 -127 -375 4 -38 11 -68 15 -68 5 0 9 10 9 23 0 35 25 108 60 178 40 78 169 211 251 257 31 18 59 32 63 32 18 0 0 -21 -46 -53 -133 -92 -246 -234 -272 -340 -6 -27 -6 -27 46 15 64 52 186 116 290 153 l77 27 -6 58 c-5 53 -2 64 40 154 58 121 139 209 210 227 44 11 47 14 61 62 8 28 14 52 13 53 -1 2 -10 -2 -20 -7z"/>
<path d="M1960 2499 c0 -6 19 -30 43 -52 23 -23 51 -59 60 -80 15 -31 21 -36 33 -26 23 19 18 -24 -5 -45 -23 -21 -41 -13 -41 18 0 24 -46 101 -76 128 -61 54 -168 63 -244 22 -52 -28 -62 -46 -53 -100 5 -32 12 -38 82 -70 117 -54 171 -92 178 -125 4 -21 14 -31 40 -40 45 -14 139 -8 180 13 19 9 35 12 39 7 7 -11 56 0 66 15 4 6 8 36 8 67 0 67 -30 120 -109 191 -68 61 -201 112 -201 77z"/>
<path d="M1475 2461 c-43 -11 -76 -29 -113 -64 -36 -34 -74 -123 -66 -155 8 -29 -10 -35 -40 -11 -29 23 -34 37 -10 35 10 -1 22 16 34 46 10 26 32 65 48 86 72 91 -36 64 -134 -33 -55 -55 -106 -150 -106 -199 0 -54 26 -103 58 -109 16 -3 31 -1 34 4 4 5 23 4 45 -2 51 -14 123 -6 173 20 32 16 39 25 35 41 -7 27 55 93 149 157 37 25 69 51 72 58 2 7 2 31 -1 53 -5 34 -10 42 -42 56 -47 20 -98 27 -136 17z"/>
<path d="M2870 2260 c1 -15 30 -51 73 -90 84 -76 116 -168 96 -272 l-12 -60 59 -56 c47 -46 50 -47 14 -9 l-45 48 0 112 c0 138 -15 172 -116 267 -38 36 -69 63 -69 60z"/>
<path d="M1502 2164 c-26 -18 -29 -39 -6 -48 9 -3 46 -6 82 -5 62 1 64 2 34 12 -18 5 -44 21 -58 33 -30 28 -24 28 -52 8z"/>
<path d="M2150 1947 c-41 -11 -45 -16 -57 -56 -7 -25 -12 -46 -10 -47 1 -1 29 4 62 12 73 17 155 18 207 2 68 -20 118 -98 118 -184 0 -17 7 -38 16 -45 14 -11 18 -10 31 6 19 26 12 105 -16 196 -20 64 -23 67 -69 87 -98 42 -193 52 -282 29z"/>
<path d="M1085 1805 c-86 -36 -139 -75 -146 -110 -11 -50 -10 -180 2 -214 11 -32 32 -41 46 -18 4 6 6 40 5 73 -4 76 14 123 59 156 51 38 93 48 201 48 l99 0 -23 43 -23 42 -80 2 c-66 2 -90 -1 -140 -22z"/>
<path d="M2170 1765 c-16 -20 -6 -45 19 -45 25 0 34 14 26 40 -8 24 -28 26 -45 5z"/>
<path d="M2039 1754 c-44 -54 39 -256 134 -325 82 -60 180 -62 289 -6 51 26 65 38 72 64 13 47 3 63 -40 63 -24 0 -60 -13 -102 -36 -100 -56 -159 -47 -243 37 -51 51 -78 111 -79 172 0 49 -9 58 -31 31z"/>
<path d="M1378 1604 c3 -55 -1 -74 -23 -119 -31 -64 -104 -132 -150 -141 -21 -4 -60 3 -116 21 -121 37 -163 18 -127 -60 25 -55 213 -79 293 -38 95 49 150 147 170 300 5 40 3 57 -10 77 -29 44 -40 32 -37 -40z"/>
<path d="M1237 1654 c-4 -4 -7 -18 -7 -31 0 -20 5 -24 23 -21 16 2 22 10 22 28 0 24 -23 39 -38 24z"/>
<path d="M2337 1653 c-4 -3 -7 -19 -7 -34 0 -31 28 -53 54 -43 22 8 31 51 16 69 -13 15 -51 20 -63 8z"/>
<path d="M2858 1580 l-34 -71 25 -5 c112 -25 189 -76 222 -148 28 -61 24 -68 -23 -41 -24 14 -46 25 -50 25 -4 0 11 -27 33 -61 40 -59 69 -118 69 -138 0 -6 -19 10 -41 34 -23 25 -43 44 -45 42 -2 -2 12 -39 31 -83 18 -43 37 -92 41 -109 5 -24 -2 -18 -37 32 -48 69 -75 71 -41 3 l20 -41 -22 7 c-58 18 -147 102 -190 179 l-17 30 4 -33 c5 -41 -11 -37 -38 10 l-20 35 -18 -21 c-18 -21 -18 -21 -13 14 3 19 8 46 11 60 3 14 -10 -18 -29 -70 -20 -52 -35 -100 -36 -106 0 -7 23 -26 50 -44 28 -18 96 -80 151 -139 55 -58 117 -116 137 -128 46 -29 101 -30 135 -3 52 41 97 213 97 375 0 165 -44 274 -148 366 -48 42 -149 99 -176 99 -8 0 -29 -31 -48 -70z"/>
<path d="M1088 1513 c-23 -6 -34 -49 -17 -69 7 -8 24 -14 38 -12 21 2 27 9 29 35 3 34 -18 53 -50 46z"/>
<path d="M546 1352 c-48 -95 -102 -256 -122 -360 -35 -187 3 -340 103 -417 44 -33 85 -44 109 -27 34 22 100 215 110 319 l6 68 -30 -51 c-29 -48 -93 -114 -111 -114 -5 0 -3 24 5 53 24 90 17 110 -15 41 -30 -65 -55 -93 -47 -52 3 12 7 53 11 90 4 55 3 67 -8 62 -22 -8 -27 19 -15 93 11 74 26 106 86 197 l40 58 -41 54 c-22 30 -41 54 -43 54 -2 0 -19 -31 -38 -68z"/>
<path d="M3303 1305 c0 -22 2 -30 4 -17 2 12 2 30 0 40 -3 9 -5 -1 -4 -23z"/>
<path d="M3303 1145 c0 -22 2 -30 4 -17 2 12 2 30 0 40 -3 9 -5 -1 -4 -23z"/>
<path d="M2505 829 c-97 -101 -277 -208 -400 -239 -62 -16 -113 -53 -130 -94 -7 -17 -12 -32 -10 -34 6 -7 60 26 80 48 29 33 77 50 140 50 86 0 170 53 201 126 15 35 67 84 90 84 34 0 134 69 134 92 0 4 -15 8 -33 8 -26 0 -42 -9 -72 -41z"/>
<path d="M2835 740 c-28 -61 -97 -126 -163 -150 -81 -30 -99 -44 -126 -98 -53 -103 -145 -162 -260 -167 -39 -2 -78 -4 -86 -4 -9 -1 -43 -24 -75 -51 -94 -79 -202 -101 -305 -60 -57 23 -70 24 -70 10 0 -5 9 -10 19 -10 11 0 22 -4 25 -8 3 -5 30 -15 61 -22 102 -25 207 7 298 89 37 33 44 35 130 41 133 9 222 61 272 159 30 59 48 75 117 101 33 12 77 39 102 63 51 48 113 147 92 147 -7 0 -21 -18 -31 -40z"/>
<path d="M1056 712 c-10 -16 52 -100 94 -128 34 -23 57 -29 130 -34 86 -6 98 -11 145 -53 11 -10 32 -25 47 -33 26 -14 28 -13 34 10 3 13 19 36 35 52 35 34 36 44 5 44 -60 0 -285 69 -467 145 -10 3 -20 2 -23 -3z"/>
<path d="M776 565 c-3 -9 -2 -14 3 -11 12 8 72 -13 95 -33 10 -9 29 -37 41 -62 50 -97 155 -159 273 -159 80 0 97 -6 156 -56 83 -71 224 -95 315 -54 23 11 48 17 55 13 6 -4 5 0 -2 9 -12 15 -17 15 -55 -3 -62 -28 -167 -26 -232 5 -27 12 -56 31 -64 40 -8 9 -33 28 -55 41 -34 19 -54 23 -112 22 -62 -1 -80 3 -137 31 -66 33 -91 58 -140 143 -25 44 -55 66 -113 83 -15 5 -24 2 -28 -9z"/>
<path d="M1675 499 c-22 -11 -49 -29 -60 -40 -19 -19 -19 -19 10 -10 49 15 59 21 78 46 22 30 22 30 -28 4z"/>
<path d="M1751 177 c-1 -12 -5 -16 -13 -11 -8 5 -7 0 2 -11 14 -16 15 -17 18 -1 2 9 1 22 -1 29 -3 7 -6 4 -6 -6z"/>
</g>
<g id="layer112" fill="#dccda5" stroke="none">
<path d="M1395 2931 c-22 -10 -61 -36 -86 -58 -45 -38 -50 -40 -131 -45 -53 -4 -102 -13 -130 -26 -59 -26 -124 -85 -150 -136 -31 -62 -55 -83 -115 -102 -107 -34 -196 -146 -210 -265 -5 -50 -10 -58 -69 -115 -63 -60 -114 -147 -113 -189 0 -11 6 -2 13 20 21 68 42 98 104 155 33 31 63 67 65 80 3 14 10 50 17 82 12 63 57 137 104 173 18 14 63 37 101 52 65 26 71 32 102 88 60 109 143 163 265 171 106 8 115 10 164 56 25 23 68 49 97 59 29 10 43 18 32 18 -11 1 -38 -8 -60 -18z"/>
<path d="M1665 2934 c18 -8 44 -11 65 -8 19 3 48 8 64 10 62 8 35 14 -60 13 -93 -1 -97 -1 -69 -15z"/>
<path d="M2028 2930 c24 -11 64 -38 89 -60 25 -22 53 -40 62 -41 9 0 48 -2 86 -3 119 -3 218 -64 270 -167 25 -49 55 -74 101 -85 108 -26 191 -118 221 -244 l13 -55 -6 54 c-11 116 -101 220 -218 252 -37 10 -96 54 -96 71 0 21 -63 99 -103 127 -56 38 -148 65 -200 58 -49 -7 -77 3 -130 47 -46 37 -99 66 -119 66 -7 0 7 -9 30 -20z"/>
<path d="M1920 2628 c39 -73 39 -73 87 -78 26 -3 59 -12 73 -19 41 -22 129 -95 130 -107 0 -6 7 -17 15 -24 8 -7 32 -40 52 -74 32 -51 37 -70 38 -121 l1 -60 40 -6 c57 -10 151 -50 217 -92 31 -20 57 -32 57 -27 0 12 -45 93 -81 146 -35 52 -92 102 -124 110 -30 7 -23 24 9 24 31 0 138 -70 169 -112 35 -46 64 -113 72 -168 5 -37 14 -52 47 -79 l41 -35 -7 54 c-23 174 -158 344 -376 473 l-45 27 31 0 c39 0 134 -33 188 -64 111 -65 206 -183 267 -329 l38 -92 1 60 c1 177 -93 326 -254 406 -79 38 -189 68 -253 69 -17 0 -35 5 -39 11 -4 7 -25 9 -55 7 -60 -6 -64 6 -6 19 l42 10 -37 16 c-22 10 -63 17 -98 17 -62 0 -105 15 -130 45 -17 21 -76 51 -118 60 l-32 7 40 -74z"/>
<path d="M1551 2673 c-127 -22 -127 -23 -150 -99 -12 -36 -21 -79 -21 -94 l0 -28 38 20 c52 27 169 21 213 -11 30 -23 31 -23 45 -3 28 41 165 74 223 54 28 -10 31 -9 31 9 0 36 -63 151 -88 160 -35 13 -196 9 -291 -8z"/>
<path d="M1357 2599 c-10 -6 -49 -12 -86 -14 -81 -4 -134 -28 -179 -80 -42 -47 -41 -59 6 -51 l37 5 -45 -17 c-25 -9 -52 -21 -60 -27 -8 -5 -44 -21 -80 -35 -213 -84 -370 -280 -381 -475 -5 -78 1 -146 11 -140 6 3 10 16 10 28 1 39 48 158 86 215 52 78 121 144 211 202 43 28 81 50 85 50 20 0 -11 -35 -61 -69 -85 -58 -194 -178 -229 -252 -52 -112 -51 -117 10 -67 64 52 185 116 288 152 l75 27 0 72 c0 63 5 81 37 145 65 130 133 201 212 224 23 6 42 12 42 12 3 1 33 106 31 106 -1 0 -10 -5 -20 -11z"/>
<path d="M1965 2500 c-4 -7 7 -23 29 -42 20 -16 48 -50 62 -74 16 -28 32 -43 40 -40 23 9 25 -11 3 -38 -27 -34 -49 -34 -49 2 -1 40 -68 132 -114 156 -65 33 -136 33 -201 1 l-56 -27 3 -51 3 -52 91 -45 c117 -58 164 -94 164 -125 0 -20 7 -26 43 -36 50 -13 133 -7 174 15 17 8 34 11 39 6 5 -5 21 -6 36 -3 29 6 38 25 38 91 0 78 -93 193 -197 242 -59 28 -99 35 -108 20z"/>
<path d="M1287 2434 c-67 -35 -128 -98 -165 -174 -35 -69 -40 -112 -18 -164 10 -24 22 -35 42 -39 16 -3 32 -1 35 4 3 6 24 6 53 -1 51 -11 98 -6 159 17 31 13 37 20 37 44 0 36 58 96 154 158 l66 43 0 49 c0 63 -26 82 -120 87 -73 4 -125 -14 -167 -60 -32 -34 -63 -107 -63 -150 0 -42 -9 -46 -45 -22 -28 18 -34 47 -9 42 10 -2 20 10 29 37 8 21 28 59 45 82 29 42 39 74 23 73 -5 -1 -30 -12 -56 -26z"/>
<path d="M2885 2238 c3 -8 28 -31 55 -52 34 -26 58 -56 77 -94 25 -52 28 -67 28 -162 -1 -83 1 -97 8 -65 15 69 3 174 -26 231 -23 46 -156 179 -142 142z"/>
<path d="M1502 2164 c-49 -34 -19 -54 83 -53 l60 0 -40 15 c-21 8 -49 23 -60 34 -19 18 -23 18 -43 4z"/>
<path d="M381 1953 c-1 -13 4 -54 11 -93 l12 -70 -37 -69 c-20 -38 -37 -77 -36 -87 0 -14 2 -15 6 -4 2 8 21 47 40 87 l36 72 -15 93 c-9 51 -16 83 -17 71z"/>
<path d="M2153 1949 c-22 -5 -44 -18 -48 -27 -7 -17 -24 -82 -21 -82 0 0 26 7 56 15 30 8 87 15 126 15 127 0 186 -51 203 -176 8 -56 27 -82 46 -63 26 26 -6 220 -42 261 -43 48 -224 80 -320 57z"/>
<path d="M1089 1806 c-75 -30 -127 -63 -140 -89 -20 -37 -24 -187 -5 -230 25 -61 40 -43 46 54 5 88 13 110 52 146 43 41 96 56 201 56 61 1 97 5 97 11 0 6 -9 26 -20 44 -20 32 -20 32 -97 32 -58 0 -92 -6 -134 -24z"/>
<path d="M2170 1765 c-17 -20 -5 -45 20 -45 11 0 23 7 26 15 6 15 -11 45 -26 45 -4 0 -13 -7 -20 -15z"/>
<path d="M2032 1732 c-17 -50 26 -173 90 -255 78 -98 201 -120 331 -60 72 34 94 64 82 111 -5 22 -10 24 -50 20 -25 -3 -65 -19 -92 -36 -72 -45 -104 -49 -168 -17 -84 41 -155 135 -155 205 0 60 -22 79 -38 32z"/>
<path d="M1380 1605 c-1 -82 -20 -133 -76 -195 -67 -74 -114 -85 -204 -50 -64 25 -138 27 -147 3 -4 -9 2 -32 13 -52 17 -32 26 -38 89 -54 189 -48 315 42 359 256 21 98 20 101 -9 134 l-24 28 -1 -70z"/>
<path d="M1234 1646 c-9 -24 4 -48 23 -44 12 2 18 12 18 28 0 29 -32 41 -41 16z"/>
<path d="M2343 1653 c-19 -7 -16 -60 3 -71 25 -14 53 -3 60 24 10 40 -22 64 -63 47z"/>
<path d="M2880 1631 c-5 -11 -10 -26 -10 -33 0 -7 -11 -30 -25 -50 l-24 -36 52 -12 c101 -24 164 -70 197 -142 29 -64 26 -73 -14 -49 -18 12 -38 21 -44 21 -5 0 12 -37 39 -82 64 -107 66 -138 3 -71 -51 53 -51 53 1 -65 49 -110 43 -135 -12 -51 -38 57 -43 61 -43 36 0 -15 7 -39 16 -52 23 -35 1 -33 -57 4 -55 35 -100 82 -134 141 -26 44 -27 44 -21 13 3 -18 2 -33 -3 -33 -11 0 -36 31 -45 55 -7 19 -8 19 -26 -5 l-20 -25 0 35 c-1 32 -3 30 -25 -30 -14 -36 -25 -70 -25 -76 0 -6 21 -25 48 -42 54 -35 140 -116 195 -184 81 -100 176 -134 232 -85 71 62 120 368 81 514 -34 126 -121 234 -236 291 -74 37 -86 39 -100 13z"/>
<path d="M324 1545 c2 -46 10 -84 23 -110 46 -89 63 -119 63 -106 0 7 -16 42 -36 77 -27 48 -38 83 -44 137 l-9 72 3 -70z"/>
<path d="M1072 1498 c-27 -27 -6 -68 35 -68 24 0 40 36 29 65 -7 18 -47 20 -64 3z"/>
<path d="M539 1334 c-77 -167 -129 -361 -129 -483 0 -120 52 -230 137 -290 54 -37 82 -27 120 44 37 69 70 183 78 270 l6 60 -25 -46 c-24 -44 -96 -119 -115 -119 -5 0 -3 26 5 58 13 56 18 114 7 82 -13 -36 -56 -121 -65 -126 -8 -5 -3 100 8 152 3 15 -2 23 -16 27 -23 6 -24 20 -9 102 12 66 35 117 85 188 19 26 34 51 34 57 0 8 -55 86 -76 109 -2 2 -22 -36 -45 -85z"/>
<path d="M396 1249 c-3 -17 -5 -55 -5 -83 2 -42 3 -38 9 29 9 85 7 107 -4 54z"/>
<path d="M2495 819 c-98 -100 -243 -187 -385 -230 -81 -24 -140 -70 -140 -108 0 -20 2 -21 28 -7 15 8 36 24 47 36 29 33 77 50 140 50 86 0 163 48 199 125 18 37 70 85 92 85 21 0 74 28 102 53 30 28 28 47 -6 47 -20 0 -41 -14 -77 -51z"/>
<path d="M2845 740 c-29 -64 -106 -135 -167 -155 -76 -25 -95 -39 -123 -95 -55 -108 -152 -170 -267 -170 -81 0 -105 -9 -156 -55 -63 -56 -124 -79 -216 -79 -67 -1 -74 -2 -46 -10 44 -13 163 8 209 37 20 12 53 37 74 56 37 33 44 35 130 41 133 9 222 61 272 159 30 59 48 75 116 101 71 26 136 83 173 150 15 28 26 53 24 56 -3 2 -13 -14 -23 -36z"/>
<path d="M1056 712 c-10 -16 52 -100 94 -128 34 -23 57 -29 130 -34 52 -4 96 -12 107 -20 10 -8 33 -27 51 -42 38 -33 58 -35 67 -9 3 11 20 33 37 50 22 22 27 32 17 34 -8 3 -70 18 -139 34 -97 24 -265 81 -352 121 -3 2 -9 -1 -12 -6z"/>
<path d="M774 559 c-4 -7 -3 -9 3 -6 14 9 73 -11 97 -32 10 -9 29 -37 41 -62 50 -97 155 -159 273 -159 80 0 97 -6 156 -56 83 -71 224 -95 315 -54 23 11 48 17 55 13 8 -4 8 -3 1 5 -8 9 -24 7 -63 -8 -101 -38 -218 -18 -298 51 -60 52 -80 59 -167 59 -119 1 -207 53 -266 159 -23 40 -45 65 -65 75 -52 23 -74 28 -82 15z"/>
<path d="M1669 495 c-25 -13 -51 -30 -58 -39 -24 -29 51 1 84 34 35 36 34 36 -26 5z"/>
<path d="M1765 213 c11 -3 24 -9 30 -14 5 -5 16 -9 25 -9 9 1 6 6 -10 15 -14 8 -34 14 -45 13 l-20 0 20 -5z"/>
</g>
<g id="layer113" fill="#fbfbfa" stroke="none">
<path d="M1669 2934 c28 -13 43 -13 82 -4 27 7 49 14 49 16 0 2 -37 4 -82 3 -82 -1 -83 -1 -49 -15z"/>
<path d="M2243 2833 c9 -2 25 -2 35 0 9 3 1 5 -18 5 -19 0 -27 -2 -17 -5z"/>
<path d="M1605 2679 c-38 -5 -92 -15 -120 -22 -46 -11 -52 -16 -73 -60 -13 -27 -26 -71 -29 -98 l-6 -50 37 22 c50 29 170 25 214 -8 27 -20 32 -21 43 -7 38 46 189 81 237 55 19 -10 22 -9 22 7 0 11 -16 51 -35 89 -32 65 -38 71 -73 77 -48 8 -129 6 -217 -5z"/>
<path d="M1892 2683 c52 -111 60 -121 105 -127 55 -7 113 -37 165 -84 22 -20 44 -36 47 -34 3 2 8 -5 11 -15 3 -10 24 -47 48 -83 49 -73 56 -96 49 -149 l-5 -37 53 -11 c56 -12 176 -65 234 -104 l33 -22 -22 44 c-58 114 -130 196 -188 214 -12 3 -20 11 -17 16 19 30 130 -24 190 -93 44 -51 71 -108 80 -172 6 -38 14 -52 46 -77 44 -35 46 -30 24 54 -41 157 -163 305 -337 409 -38 22 -68 44 -68 48 0 15 107 -12 179 -46 110 -51 212 -158 273 -284 25 -52 51 -106 56 -120 10 -23 11 -22 11 16 2 120 -57 264 -141 339 -86 77 -262 145 -378 145 -16 0 -30 5 -30 11 0 8 -15 10 -49 5 -59 -8 -80 10 -24 19 21 4 42 8 48 9 25 6 -95 36 -146 36 -50 0 -63 4 -102 34 -25 19 -59 42 -76 50 -31 17 -75 22 -69 9z"/>
<path d="M1356 2593 c-4 -4 -43 -10 -86 -14 -91 -6 -157 -40 -192 -97 l-21 -33 39 5 39 6 -39 -15 c-21 -8 -45 -20 -53 -27 -8 -6 -49 -26 -92 -43 -189 -77 -314 -209 -365 -384 -15 -50 -24 -242 -11 -229 3 3 13 36 23 75 35 130 117 249 234 337 75 55 136 91 144 83 10 -10 -10 -34 -52 -61 -72 -46 -160 -132 -207 -204 -39 -60 -72 -130 -64 -138 1 -2 22 12 45 30 54 43 184 111 281 146 60 22 75 32 74 47 -9 65 -3 103 25 165 66 145 154 242 232 254 33 5 37 10 49 51 12 46 11 60 -3 46z"/>
<path d="M1965 2499 c-4 -6 12 -26 34 -46 23 -19 51 -53 62 -75 16 -31 24 -38 39 -33 28 9 26 -16 -3 -43 -34 -32 -54 -27 -48 11 2 10 -27 66 -53 100 -59 81 -210 99 -290 36 -23 -18 -27 -27 -24 -67 l3 -47 105 -51 c103 -51 166 -103 156 -129 -3 -9 10 -17 39 -24 58 -15 92 -13 140 6 22 8 61 15 86 14 44 -2 47 -1 53 30 13 65 6 95 -32 155 -46 71 -103 118 -180 150 -64 27 -78 29 -87 13z"/>
<path d="M1284 2430 c-70 -40 -148 -128 -173 -195 -24 -64 -25 -74 -10 -125 13 -44 19 -46 159 -48 117 -2 161 15 171 66 9 43 49 84 143 147 l75 50 1 47 c0 46 -2 48 -42 69 -60 31 -150 24 -208 -16 -53 -36 -93 -104 -96 -162 -3 -56 -8 -61 -42 -42 -31 17 -43 58 -16 55 11 -1 21 12 31 39 7 22 27 57 43 77 52 64 36 80 -36 38z"/>
<path d="M1496 2151 c-23 -25 -12 -31 71 -36 54 -4 62 -3 37 5 -17 5 -39 19 -49 30 -23 25 -37 25 -59 1z"/>
<path d="M2177 1946 c-67 -15 -74 -20 -83 -65 -7 -33 -7 -34 22 -27 16 4 74 10 129 12 91 4 104 3 140 -18 47 -27 85 -94 85 -149 0 -50 8 -69 31 -69 14 0 19 8 20 28 3 56 -4 109 -23 170 -18 60 -22 64 -66 83 -43 19 -163 50 -187 48 -5 0 -36 -6 -68 -13z"/>
<path d="M1136 1819 c-51 -12 -148 -64 -177 -95 -21 -23 -23 -34 -24 -127 0 -111 14 -159 41 -136 10 8 14 33 14 81 0 147 70 202 258 203 50 0 92 2 92 3 0 20 -36 71 -53 76 -31 8 -105 6 -151 -5z"/>
<path d="M2170 1745 c0 -29 34 -36 44 -9 8 21 -1 34 -25 34 -14 0 -19 -7 -19 -25z"/>
<path d="M2043 1749 c-20 -20 -16 -61 12 -136 32 -84 82 -154 137 -190 37 -25 51 -28 122 -28 70 0 90 4 147 31 56 27 67 36 72 63 15 74 -28 80 -140 21 -42 -22 -88 -40 -102 -40 -42 0 -108 39 -156 92 -42 47 -54 72 -72 161 -6 30 -10 36 -20 26z"/>
<path d="M1379 1588 c-4 -77 -7 -87 -43 -141 -63 -95 -152 -130 -228 -91 -16 9 -54 18 -82 21 -67 7 -84 -9 -63 -59 13 -30 22 -37 74 -51 213 -60 359 54 379 296 6 64 4 74 -14 90 -20 18 -20 18 -23 -65z"/>
<path d="M2342 1648 c-25 -25 -7 -68 29 -68 29 0 44 27 31 55 -12 27 -40 33 -60 13z"/>
<path d="M1232 1628 c4 -30 43 -33 43 -3 0 13 -8 21 -23 23 -20 3 -23 0 -20 -20z"/>
<path d="M2892 1638 c-5 -7 -20 -35 -33 -63 -13 -27 -25 -53 -26 -56 -2 -4 18 -12 45 -18 107 -26 192 -99 208 -180 l7 -33 -42 21 c-46 24 -50 21 -21 -19 32 -45 83 -160 75 -168 -4 -4 -10 -1 -13 6 -5 17 -63 84 -68 80 -2 -2 13 -43 32 -91 46 -114 41 -139 -11 -61 -30 45 -40 54 -43 40 -2 -10 6 -32 18 -48 12 -16 20 -32 17 -34 -7 -8 -98 42 -129 70 -16 14 -46 51 -68 82 -38 55 -40 56 -34 23 l7 -34 -26 24 c-15 13 -29 33 -33 43 -6 19 -7 19 -22 -3 -15 -21 -16 -21 -22 -3 -5 14 -12 5 -29 -40 -12 -32 -20 -60 -19 -61 2 -1 22 -14 45 -29 42 -25 151 -129 225 -213 73 -83 155 -104 205 -55 47 48 93 227 93 364 0 210 -99 369 -279 449 -52 23 -46 22 -59 7z"/>
<path d="M1070 1491 c-13 -25 -4 -48 21 -56 38 -12 65 35 37 63 -18 18 -46 14 -58 -7z"/>
<path d="M546 1344 c-55 -113 -112 -295 -126 -400 -20 -147 9 -263 84 -342 41 -44 82 -65 112 -58 40 10 102 158 124 296 14 89 14 90 -18 39 -31 -47 -76 -95 -104 -110 -22 -12 -22 -16 -3 67 19 78 15 92 -9 32 -9 -24 -25 -54 -36 -68 l-20 -25 6 91 c6 79 4 92 -10 97 -40 16 -6 161 62 264 29 44 52 83 52 87 0 5 -12 23 -27 41 -16 17 -33 40 -38 50 -9 15 -17 5 -49 -61z"/>
<path d="M2493 810 c-46 -42 -49 -48 -25 -41 44 13 85 37 111 65 l24 26 -29 0 c-21 -1 -44 -15 -81 -50z"/>
<path d="M2375 715 c-41 -34 -199 -111 -260 -127 -27 -7 -63 -20 -80 -29 -30 -16 -72 -75 -62 -86 7 -6 44 16 68 39 38 37 65 48 124 48 65 0 133 25 173 63 20 18 79 118 70 117 -2 -1 -16 -12 -33 -25z"/>
<path d="M1060 705 c0 -19 36 -68 72 -99 49 -43 91 -56 175 -56 54 0 67 -4 95 -28 40 -34 80 -62 90 -62 3 0 10 10 14 22 4 13 20 35 36 50 l29 27 -23 5 c-123 26 -254 64 -353 101 -118 45 -135 50 -135 40z"/>
<path d="M1650 480 c-25 -16 -41 -30 -37 -30 17 0 73 28 86 43 21 26 1 20 -49 -13z"/>
</g>


</svg>